<svg width="40" height="40" viewBox="0 0 40 40" fill="none" xmlns="http://www.w3.org/2000/svg">
<path d="M20 0.5C30.7696 0.5 39.5 9.23045 39.5 20C39.5 30.7696 30.7696 39.5 20 39.5C9.23045 39.5 0.5 30.7696 0.5 20C0.5 9.23045 9.23045 0.5 20 0.5Z" fill="white"/>
<path d="M20 0.5C30.7696 0.5 39.5 9.23045 39.5 20C39.5 30.7696 30.7696 39.5 20 39.5C9.23045 39.5 0.5 30.7696 0.5 20C0.5 9.23045 9.23045 0.5 20 0.5Z" stroke="#E2E8F0"/>
<path fill-rule="evenodd" clip-rule="evenodd" d="M14.9166 20C14.9166 19.7699 15.1032 19.5833 15.3333 19.5833H24.6666C24.8967 19.5833 25.0833 19.7699 25.0833 20C25.0833 20.2301 24.8967 20.4167 24.6666 20.4167H15.3333C15.1032 20.4167 14.9166 20.2301 14.9166 20Z" fill="#020617"/>
<path fill-rule="evenodd" clip-rule="evenodd" d="M19.7054 15.0387C19.8681 14.876 20.132 14.876 20.2947 15.0387L24.9613 19.7054C25.1241 19.8681 25.1241 20.1319 24.9613 20.2946L20.2947 24.9613C20.132 25.124 19.8681 25.124 19.7054 24.9613C19.5427 24.7986 19.5427 24.5347 19.7054 24.372L24.0775 20L19.7054 15.628C19.5427 15.4652 19.5427 15.2014 19.7054 15.0387Z" fill="#020617"/>
</svg>
