<svg width="40" height="40" viewBox="0 0 40 40" fill="none" xmlns="http://www.w3.org/2000/svg">
<path d="M20 0.5C30.7696 0.5 39.5 9.23045 39.5 20C39.5 30.7696 30.7696 39.5 20 39.5C9.23045 39.5 0.5 30.7696 0.5 20C0.5 9.23045 9.23045 0.5 20 0.5Z" fill="white"/>
<path d="M20 0.5C30.7696 0.5 39.5 9.23045 39.5 20C39.5 30.7696 30.7696 39.5 20 39.5C9.23045 39.5 0.5 30.7696 0.5 20C0.5 9.23045 9.23045 0.5 20 0.5Z" stroke="#E2E8F0"/>
<path fill-rule="evenodd" clip-rule="evenodd" d="M14.9167 20C14.9167 19.7699 15.1032 19.5833 15.3333 19.5833H24.6667C24.8968 19.5833 25.0833 19.7699 25.0833 20C25.0833 20.2301 24.8968 20.4167 24.6667 20.4167H15.3333C15.1032 20.4167 14.9167 20.2301 14.9167 20Z" fill="#020617"/>
<path fill-rule="evenodd" clip-rule="evenodd" d="M20.2946 15.0387C20.4573 15.2014 20.4573 15.4652 20.2946 15.628L15.9226 20L20.2946 24.372C20.4573 24.5347 20.4573 24.7986 20.2946 24.9613C20.1319 25.124 19.8681 25.124 19.7054 24.9613L15.0387 20.2946C14.876 20.1319 14.876 19.8681 15.0387 19.7054L19.7054 15.0387C19.8681 14.876 20.1319 14.876 20.2946 15.0387Z" fill="#020617"/>
</svg>
