<svg width="600" height="600" viewBox="0 0 600 600" fill="none" xmlns="http://www.w3.org/2000/svg">
<g clip-path="url(#clip0_108_8372)">
<path d="M299.765 311.481C306.132 311.481 311.3 306.315 311.3 299.95C311.3 293.585 306.132 288.419 299.765 288.419C293.398 288.419 288.23 293.585 288.23 299.95C288.23 306.315 293.398 311.481 299.765 311.481Z" fill="#FDE68A"/>
<path d="M333.04 310.742C339.008 310.742 343.835 305.905 343.835 299.95C343.835 293.994 338.998 289.158 333.04 289.158C327.083 289.158 322.245 293.994 322.245 299.95C322.245 305.905 327.083 310.742 333.04 310.742Z" fill="#FDE68A"/>
<path d="M320.516 336.751C326.483 336.751 331.311 331.915 331.311 325.96C331.311 320.004 326.473 315.168 320.516 315.168C314.559 315.168 309.721 320.004 309.721 325.96C309.721 331.915 314.559 336.751 320.516 336.751Z" fill="#FDE68A"/>
<path d="M292.358 343.087C298.266 343.087 303.064 338.301 303.064 332.385C303.064 326.47 298.276 321.684 292.358 321.684C286.441 321.684 281.653 326.47 281.653 332.385C281.653 338.301 286.441 343.087 292.358 343.087Z" fill="#FDE68A"/>
<path d="M269.789 325.091C275.696 325.091 280.494 320.305 280.494 314.389C280.494 308.474 275.706 303.688 269.789 303.688C263.871 303.688 259.083 308.474 259.083 314.389C259.083 320.305 263.871 325.091 269.789 325.091Z" fill="#FDE68A"/>
<path d="M277.299 293.018C281.444 288.874 281.444 282.155 277.299 278.011C273.153 273.867 266.432 273.867 262.286 278.011C258.141 282.155 258.141 288.874 262.286 293.018C266.432 297.163 273.153 297.163 277.299 293.018Z" fill="#FDE68A"/>
<path d="M294.766 277.856C300.475 276.521 304.021 270.813 302.686 265.107C301.351 259.4 295.641 255.855 289.933 257.189C284.224 258.524 280.678 264.232 282.013 269.939C283.348 275.645 289.058 279.19 294.766 277.856Z" fill="#FDE68A"/>
<path d="M320.516 284.642C326.423 284.642 331.221 279.856 331.221 273.94C331.221 268.025 326.433 263.238 320.516 263.238C314.598 263.238 309.811 268.025 309.811 273.94C309.811 279.856 314.598 284.642 320.516 284.642Z" fill="#FDE68A"/>
<path d="M375.125 303.551C377.111 298.693 374.782 293.145 369.922 291.16C365.063 289.174 359.513 291.503 357.527 296.361C355.541 301.219 357.87 306.767 362.73 308.752C367.589 310.738 373.139 308.409 375.125 303.551Z" fill="#FDE68A"/>
<path d="M359.728 338.321C364.976 338.321 369.234 334.064 369.234 328.818C369.234 323.572 364.976 319.315 359.728 319.315C354.48 319.315 350.222 323.572 350.222 328.818C350.222 334.064 354.48 338.321 359.728 338.321Z" fill="#FDE68A"/>
<path d="M341.266 361.473C346.514 361.473 350.772 357.216 350.772 351.97C350.772 346.724 346.514 342.468 341.266 342.468C336.019 342.468 331.761 346.724 331.761 351.97C331.761 357.216 336.019 361.473 341.266 361.473Z" fill="#FDE68A"/>
<path d="M321.305 371.534C325.018 367.823 325.018 361.806 321.305 358.095C317.593 354.384 311.574 354.384 307.862 358.095C304.15 361.806 304.15 367.823 307.862 371.534C311.574 375.245 317.593 375.245 321.305 371.534Z" fill="#FDE68A"/>
<path d="M291.687 371.536C295.399 367.825 295.399 361.808 291.687 358.097C287.975 354.386 281.956 354.386 278.244 358.097C274.532 361.808 274.532 367.825 278.244 371.536C281.956 375.247 287.975 375.247 291.687 371.536Z" fill="#FDE68A"/>
<path d="M258.274 361.383C263.471 361.383 267.689 357.166 267.689 351.97C267.689 346.774 263.471 342.558 258.274 342.558C253.076 342.558 248.858 346.774 248.858 351.97C248.858 357.166 253.076 361.383 258.274 361.383Z" fill="#FDE68A"/>
<path d="M239.802 338.231C245 338.231 249.218 334.014 249.218 328.818C249.218 323.622 245 319.405 239.802 319.405C234.604 319.405 230.386 323.622 230.386 328.818C230.386 334.014 234.604 338.231 239.802 338.231Z" fill="#FDE68A"/>
<path d="M233.215 309.363C238.413 309.363 242.631 305.146 242.631 299.95C242.631 294.754 238.413 290.537 233.215 290.537C228.017 290.537 223.799 294.754 223.799 299.95C223.799 305.146 228.017 309.363 233.215 309.363Z" fill="#FDE68A"/>
<path d="M239.802 280.495C245 280.495 249.218 276.278 249.218 271.082C249.218 265.886 245 261.669 239.802 261.669C234.604 261.669 230.386 265.886 230.386 271.082C230.386 276.278 234.604 280.495 239.802 280.495Z" fill="#FDE68A"/>
<path d="M258.274 257.343C263.471 257.343 267.689 253.126 267.689 247.93C267.689 242.734 263.471 238.518 258.274 238.518C253.076 238.518 248.858 242.734 248.858 247.93C248.858 253.126 253.076 257.343 258.274 257.343Z" fill="#FDE68A"/>
<path d="M293.638 238.708C295.65 233.915 293.395 228.398 288.6 226.386C283.805 224.374 278.286 226.629 276.274 231.422C274.261 236.216 276.516 241.733 281.311 243.745C286.106 245.757 291.625 243.502 293.638 238.708Z" fill="#FDE68A"/>
<path d="M323.252 238.707C325.264 233.914 323.009 228.397 318.214 226.385C313.419 224.373 307.901 226.628 305.888 231.421C303.875 236.215 306.131 241.732 310.926 243.744C315.721 245.756 321.239 243.501 323.252 238.707Z" fill="#FDE68A"/>
<path d="M341.266 257.432C346.514 257.432 350.772 253.175 350.772 247.929C350.772 242.683 346.514 238.427 341.266 238.427C336.019 238.427 331.761 242.683 331.761 247.929C331.761 253.175 336.019 257.432 341.266 257.432Z" fill="#FDE68A"/>
<path d="M359.728 280.585C364.976 280.585 369.234 276.328 369.234 271.082C369.234 265.836 364.976 261.579 359.728 261.579C354.48 261.579 350.222 265.836 350.222 271.082C350.222 276.328 354.48 280.585 359.728 280.585Z" fill="#FDE68A"/>
<path d="M400.952 308.106C405.48 307.367 408.551 303.099 407.812 298.573C407.073 294.047 402.804 290.976 398.276 291.715C393.749 292.454 390.678 296.722 391.417 301.248C392.156 305.774 396.425 308.844 400.952 308.106Z" fill="#FDE68A"/>
<path d="M397.071 337.437C401.538 336.391 404.31 331.923 403.263 327.458C402.216 322.993 397.747 320.222 393.28 321.268C388.814 322.315 386.042 326.783 387.089 331.248C388.135 335.713 392.605 338.484 397.071 337.437Z" fill="#FDE68A"/>
<path d="M382.248 364.471C386.836 364.471 390.554 360.753 390.554 356.167C390.554 351.581 386.836 347.863 382.248 347.863C377.661 347.863 373.942 351.581 373.942 356.167C373.942 360.753 377.661 364.471 382.248 364.471Z" fill="#FDE68A"/>
<path d="M364.314 385.984C368.718 384.701 371.247 380.092 369.964 375.689C368.68 371.286 364.069 368.757 359.665 370.041C355.261 371.324 352.731 375.933 354.015 380.336C355.298 384.739 359.909 387.268 364.314 385.984Z" fill="#FDE68A"/>
<path d="M336.239 401.152C340.827 401.152 344.545 397.435 344.545 392.849C344.545 388.262 340.827 384.545 336.239 384.545C331.651 384.545 327.933 388.262 327.933 392.849C327.933 397.435 331.651 401.152 336.239 401.152Z" fill="#FDE68A"/>
<path d="M307.232 407.777C311.819 407.777 315.538 404.06 315.538 399.474C315.538 394.888 311.819 391.17 307.232 391.17C302.644 391.17 298.925 394.888 298.925 399.474C298.925 404.06 302.644 407.777 307.232 407.777Z" fill="#FDE68A"/>
<path d="M283.742 402.747C286.801 399.329 286.509 394.08 283.09 391.022C279.671 387.964 274.42 388.255 271.361 391.673C268.302 395.091 268.594 400.34 272.013 403.398C275.432 406.456 280.683 406.164 283.742 402.747Z" fill="#FDE68A"/>
<path d="M249.848 394.597C254.385 394.597 258.064 390.92 258.064 386.384C258.064 381.847 254.385 378.17 249.848 378.17C245.31 378.17 241.631 381.847 241.631 386.384C241.631 390.92 245.31 394.597 249.848 394.597Z" fill="#FDE68A"/>
<path d="M226.588 376.042C231.126 376.042 234.804 372.364 234.804 367.828C234.804 363.291 231.126 359.614 226.588 359.614C222.05 359.614 218.372 363.291 218.372 367.828C218.372 372.364 222.05 376.042 226.588 376.042Z" fill="#FDE68A"/>
<path d="M209.826 351.461C214.364 351.461 218.042 347.783 218.042 343.247C218.042 338.71 214.364 335.033 209.826 335.033C205.288 335.033 201.609 338.71 201.609 343.247C201.609 347.783 205.288 351.461 209.826 351.461Z" fill="#FDE68A"/>
<path d="M201.049 323.032C205.587 323.032 209.266 319.355 209.266 314.818C209.266 310.282 205.587 306.604 201.049 306.604C196.511 306.604 192.833 310.282 192.833 314.818C192.833 319.355 196.511 323.032 201.049 323.032Z" fill="#FDE68A"/>
<path d="M201.049 293.195C205.537 293.195 209.166 289.558 209.166 285.082C209.166 280.605 205.527 276.968 201.049 276.968C196.571 276.968 192.933 280.605 192.933 285.082C192.933 289.558 196.571 293.195 201.049 293.195Z" fill="#FDE68A"/>
<path d="M209.825 264.767C214.313 264.767 217.942 261.129 217.942 256.653C217.942 252.176 214.303 248.539 209.825 248.539C205.347 248.539 201.709 252.176 201.709 256.653C201.709 261.129 205.347 264.767 209.825 264.767Z" fill="#FDE68A"/>
<path d="M226.588 240.186C231.076 240.186 234.704 236.548 234.704 232.072C234.704 227.595 231.066 223.958 226.588 223.958C222.11 223.958 218.472 227.595 218.472 232.072C218.472 236.548 222.11 240.186 226.588 240.186Z" fill="#FDE68A"/>
<path d="M249.848 221.64C254.336 221.64 257.964 218.002 257.964 213.526C257.964 209.049 254.326 205.412 249.848 205.412C245.37 205.412 241.731 209.049 241.731 213.526C241.731 218.002 245.37 221.64 249.848 221.64Z" fill="#FDE68A"/>
<path d="M277.555 210.769C282.043 210.769 285.672 207.131 285.672 202.655C285.672 198.178 282.033 194.541 277.555 194.541C273.077 194.541 269.439 198.178 269.439 202.655C269.439 207.131 273.077 210.769 277.555 210.769Z" fill="#FDE68A"/>
<path d="M307.232 208.65C311.77 208.65 315.448 204.973 315.448 200.436C315.448 195.9 311.77 192.223 307.232 192.223C302.694 192.223 299.016 195.9 299.016 200.436C299.016 204.973 302.694 208.65 307.232 208.65Z" fill="#FDE68A"/>
<path d="M336.239 215.265C340.777 215.265 344.455 211.588 344.455 207.052C344.455 202.515 340.777 198.838 336.239 198.838C331.701 198.838 328.022 202.515 328.022 207.052C328.022 211.588 331.701 215.265 336.239 215.265Z" fill="#FDE68A"/>
<path d="M362.007 230.133C366.545 230.133 370.224 226.456 370.224 221.92C370.224 217.383 366.545 213.706 362.007 213.706C357.469 213.706 353.791 217.383 353.791 221.92C353.791 226.456 357.469 230.133 362.007 230.133Z" fill="#FDE68A"/>
<path d="M382.248 251.947C386.786 251.947 390.464 248.27 390.464 243.733C390.464 239.197 386.786 235.52 382.248 235.52C377.71 235.52 374.032 239.197 374.032 243.733C374.032 248.27 377.71 251.947 382.248 251.947Z" fill="#FDE68A"/>
<path d="M395.162 278.747C399.7 278.747 403.378 275.07 403.378 270.533C403.378 265.997 399.7 262.319 395.162 262.319C390.624 262.319 386.946 265.997 386.946 270.533C386.946 275.07 390.624 278.747 395.162 278.747Z" fill="#FDE68A"/>
<path d="M432.875 306.965C436.744 306.965 439.892 303.827 439.892 299.95C439.892 296.073 436.754 292.936 432.875 292.936C428.997 292.936 425.858 296.073 425.858 299.95C425.858 303.827 428.997 306.965 432.875 306.965Z" fill="#FDE68A"/>
<path d="M429.537 336.572C433.405 336.572 436.554 333.435 436.554 329.558C436.554 325.681 433.415 322.543 429.537 322.543C425.659 322.543 422.52 325.681 422.52 329.558C422.52 333.435 425.659 336.572 429.537 336.572Z" fill="#FDE68A"/>
<path d="M419.691 364.7C423.559 364.7 426.708 361.563 426.708 357.686C426.708 353.808 423.569 350.671 419.691 350.671C415.813 350.671 412.674 353.808 412.674 357.686C412.674 361.563 415.813 364.7 419.691 364.7Z" fill="#FDE68A"/>
<path d="M403.838 389.931C407.706 389.931 410.855 386.793 410.855 382.916C410.855 379.039 407.716 375.901 403.838 375.901C399.96 375.901 396.821 379.039 396.821 382.916C396.821 386.793 399.96 389.931 403.838 389.931Z" fill="#FDE68A"/>
<path d="M382.758 410.995C386.626 410.995 389.774 407.857 389.774 403.98C389.774 400.103 386.636 396.966 382.758 396.966C378.879 396.966 375.741 400.103 375.741 403.98C375.741 407.857 378.879 410.995 382.758 410.995Z" fill="#FDE68A"/>
<path d="M357.519 426.852C361.388 426.852 364.536 423.715 364.536 419.838C364.536 415.961 361.398 412.823 357.519 412.823C353.641 412.823 350.502 415.961 350.502 419.838C350.502 423.715 353.641 426.852 357.519 426.852Z" fill="#FDE68A"/>
<path d="M329.392 436.695C333.26 436.695 336.409 433.558 336.409 429.681C336.409 425.804 333.27 422.666 329.392 422.666C325.514 422.666 322.375 425.804 322.375 429.681C322.375 433.558 325.514 436.695 329.392 436.695Z" fill="#FDE68A"/>
<path d="M299.765 440.032C303.633 440.032 306.782 436.895 306.782 433.018C306.782 429.141 303.643 426.003 299.765 426.003C295.887 426.003 292.748 429.141 292.748 433.018C292.748 436.895 295.887 440.032 299.765 440.032Z" fill="#FDE68A"/>
<path d="M270.149 436.695C274.017 436.695 277.166 433.558 277.166 429.681C277.166 425.804 274.027 422.666 270.149 422.666C266.27 422.666 263.132 425.804 263.132 429.681C263.132 433.558 266.27 436.695 270.149 436.695Z" fill="#FDE68A"/>
<path d="M242.011 426.852C245.879 426.852 249.028 423.715 249.028 419.838C249.028 415.961 245.889 412.823 242.011 412.823C238.133 412.823 234.994 415.961 234.994 419.838C234.994 423.715 238.133 426.852 242.011 426.852Z" fill="#FDE68A"/>
<path d="M216.772 410.905C220.591 410.905 223.689 407.807 223.689 403.99C223.689 400.173 220.591 397.075 216.772 397.075C212.954 397.075 209.855 400.173 209.855 403.99C209.855 407.807 212.954 410.905 216.772 410.905Z" fill="#FDE68A"/>
<path d="M195.702 389.831C199.52 389.831 202.619 386.734 202.619 382.917C202.619 379.1 199.52 376.002 195.702 376.002C191.884 376.002 188.785 379.1 188.785 382.917C188.785 386.734 191.884 389.831 195.702 389.831Z" fill="#FDE68A"/>
<path d="M179.839 364.611C183.658 364.611 186.756 361.513 186.756 357.696C186.756 353.879 183.658 350.781 179.839 350.781C176.021 350.781 172.922 353.879 172.922 357.696C172.922 361.513 176.021 364.611 179.839 364.611Z" fill="#FDE68A"/>
<path d="M169.994 336.472C173.814 336.472 176.91 333.376 176.91 329.557C176.91 325.738 173.814 322.643 169.994 322.643C166.173 322.643 163.077 325.738 163.077 329.557C163.077 333.376 166.173 336.472 169.994 336.472Z" fill="#FDE68A"/>
<path d="M166.655 306.865C170.475 306.865 173.572 303.769 173.572 299.95C173.572 296.131 170.475 293.035 166.655 293.035C162.835 293.035 159.738 296.131 159.738 299.95C159.738 303.769 162.835 306.865 166.655 306.865Z" fill="#FDE68A"/>
<path d="M169.994 277.257C173.812 277.257 176.91 274.159 176.91 270.342C176.91 266.525 173.812 263.428 169.994 263.428C166.175 263.428 163.077 266.525 163.077 270.342C163.077 274.159 166.175 277.257 169.994 277.257Z" fill="#FDE68A"/>
<path d="M179.839 249.129C183.659 249.129 186.756 246.033 186.756 242.215C186.756 238.396 183.659 235.3 179.839 235.3C176.019 235.3 172.922 238.396 172.922 242.215C172.922 246.033 176.019 249.129 179.839 249.129Z" fill="#FDE68A"/>
<path d="M196.811 223.803C200.582 223.194 203.145 219.644 202.536 215.874C201.927 212.104 198.375 209.542 194.604 210.151C190.833 210.76 188.27 214.31 188.879 218.08C189.489 221.85 193.04 224.412 196.811 223.803Z" fill="#FDE68A"/>
<path d="M216.772 202.834C220.592 202.834 223.689 199.738 223.689 195.92C223.689 192.101 220.592 189.005 216.772 189.005C212.952 189.005 209.855 192.101 209.855 195.92C209.855 199.738 212.952 202.834 216.772 202.834Z" fill="#FDE68A"/>
<path d="M242.011 186.977C245.831 186.977 248.928 183.881 248.928 180.062C248.928 176.243 245.831 173.147 242.011 173.147C238.191 173.147 235.094 176.243 235.094 180.062C235.094 183.881 238.191 186.977 242.011 186.977Z" fill="#FDE68A"/>
<path d="M270.148 177.134C273.968 177.134 277.065 174.038 277.065 170.219C277.065 166.401 273.968 163.305 270.148 163.305C266.328 163.305 263.231 166.401 263.231 170.219C263.231 174.038 266.328 177.134 270.148 177.134Z" fill="#FDE68A"/>
<path d="M299.765 173.807C303.583 173.807 306.682 170.709 306.682 166.892C306.682 163.075 303.583 159.978 299.765 159.978C295.947 159.978 292.848 163.075 292.848 166.892C292.848 170.709 295.947 173.807 299.765 173.807Z" fill="#FDE68A"/>
<path d="M329.392 177.134C333.212 177.134 336.309 174.038 336.309 170.219C336.309 166.401 333.212 163.305 329.392 163.305C325.572 163.305 322.475 166.401 322.475 170.219C322.475 174.038 325.572 177.134 329.392 177.134Z" fill="#FDE68A"/>
<path d="M357.519 186.977C361.339 186.977 364.436 183.881 364.436 180.062C364.436 176.243 361.339 173.147 357.519 173.147C353.699 173.147 350.602 176.243 350.602 180.062C350.602 183.881 353.699 186.977 357.519 186.977Z" fill="#FDE68A"/>
<path d="M382.758 202.834C386.578 202.834 389.675 199.738 389.675 195.92C389.675 192.101 386.578 189.005 382.758 189.005C378.938 189.005 375.841 192.101 375.841 195.92C375.841 199.738 378.938 202.834 382.758 202.834Z" fill="#FDE68A"/>
<path d="M403.838 223.899C407.658 223.899 410.755 220.803 410.755 216.984C410.755 213.165 407.658 210.069 403.838 210.069C400.018 210.069 396.921 213.165 396.921 216.984C396.921 220.803 400.018 223.899 403.838 223.899Z" fill="#FDE68A"/>
<path d="M419.691 249.228C423.559 249.228 426.708 246.091 426.708 242.214C426.708 238.337 423.569 235.199 419.691 235.199C415.813 235.199 412.674 238.337 412.674 242.214C412.674 246.091 415.813 249.228 419.691 249.228Z" fill="#FDE68A"/>
<path d="M429.537 277.357C433.405 277.357 436.554 274.22 436.554 270.343C436.554 266.466 433.415 263.328 429.537 263.328C425.659 263.328 422.52 266.466 422.52 270.343C422.52 274.22 425.659 277.357 429.537 277.357Z" fill="#FDE68A"/>
<path d="M466.15 305.766C469.359 305.766 471.968 303.168 471.968 299.95C471.968 296.733 469.369 294.135 466.15 294.135C462.932 294.135 460.333 296.733 460.333 299.95C460.333 303.168 462.932 305.766 466.15 305.766Z" fill="#FDE68A"/>
<path d="M465.67 335.025C468.646 333.815 470.078 330.422 468.868 327.447C467.657 324.472 464.263 323.041 461.287 324.251C458.311 325.461 456.88 328.853 458.09 331.829C459.3 334.804 462.694 336.235 465.67 335.025Z" fill="#FDE68A"/>
<path d="M455.545 364.211C458.753 364.211 461.362 361.613 461.362 358.396C461.362 355.178 458.763 352.58 455.545 352.58C452.326 352.58 449.728 355.178 449.728 358.396C449.728 361.613 452.326 364.211 455.545 364.211Z" fill="#FDE68A"/>
<path d="M442.601 391.08C445.809 391.08 448.418 388.482 448.418 385.265C448.418 382.047 445.819 379.449 442.601 379.449C439.382 379.449 436.783 382.047 436.783 385.265C436.783 388.482 439.382 391.08 442.601 391.08Z" fill="#FDE68A"/>
<path d="M425.069 415.201C428.277 415.201 430.886 412.603 430.886 409.386C430.886 406.168 428.287 403.57 425.069 403.57C421.85 403.57 419.251 406.168 419.251 409.386C419.251 412.603 421.85 415.201 425.069 415.201Z" fill="#FDE68A"/>
<path d="M403.508 435.806C406.717 435.806 409.326 433.208 409.326 429.99C409.326 426.773 406.727 424.175 403.508 424.175C400.29 424.175 397.691 426.773 397.691 429.99C397.691 433.208 400.29 435.806 403.508 435.806Z" fill="#FDE68A"/>
<path d="M378.609 452.234C381.818 452.234 384.427 449.636 384.427 446.418C384.427 443.201 381.828 440.603 378.609 440.603C375.391 440.603 372.792 443.201 372.792 446.418C372.792 449.636 375.391 452.234 378.609 452.234Z" fill="#FDE68A"/>
<path d="M351.182 463.954C354.391 463.954 357 461.356 357 458.139C357 454.921 354.401 452.323 351.182 452.323C347.964 452.323 345.365 454.921 345.365 458.139C345.365 461.356 347.964 463.954 351.182 463.954Z" fill="#FDE68A"/>
<path d="M322.105 470.599C325.318 470.599 327.922 467.995 327.922 464.783C327.922 461.571 325.318 458.968 322.105 458.968C318.892 458.968 316.288 461.571 316.288 464.783C316.288 467.995 318.892 470.599 322.105 470.599Z" fill="#FDE68A"/>
<path d="M292.298 471.829C295.456 471.829 298.016 469.27 298.016 466.113C298.016 462.956 295.456 460.397 292.298 460.397C289.141 460.397 286.581 462.956 286.581 466.113C286.581 469.27 289.141 471.829 292.298 471.829Z" fill="#FDE68A"/>
<path d="M262.742 467.832C265.899 467.832 268.459 465.273 268.459 462.116C268.459 458.959 265.899 456.4 262.742 456.4C259.584 456.4 257.024 458.959 257.024 462.116C257.024 465.273 259.584 467.832 262.742 467.832Z" fill="#FDE68A"/>
<path d="M238.416 456.938C240.649 454.706 240.649 451.087 238.416 448.855C236.183 446.623 232.563 446.623 230.33 448.855C228.098 451.087 228.098 454.706 230.33 456.938C232.563 459.17 236.183 459.17 238.416 456.938Z" fill="#FDE68A"/>
<path d="M209.164 444.399C212.266 443.81 214.303 440.819 213.714 437.717C213.125 434.616 210.133 432.579 207.031 433.168C203.928 433.757 201.891 436.748 202.48 439.85C203.069 442.951 206.061 444.988 209.164 444.399Z" fill="#FDE68A"/>
<path d="M184.787 425.893C187.944 425.893 190.504 423.334 190.504 420.178C190.504 417.021 187.944 414.462 184.787 414.462C181.629 414.462 179.069 417.021 179.069 420.178C179.069 423.334 181.629 425.893 184.787 425.893Z" fill="#FDE68A"/>
<path d="M165.156 403.441C168.314 403.441 170.873 400.882 170.873 397.725C170.873 394.569 168.314 392.01 165.156 392.01C161.998 392.01 159.438 394.569 159.438 397.725C159.438 400.882 161.998 403.441 165.156 403.441Z" fill="#FDE68A"/>
<path d="M149.862 377.84C153.02 377.84 155.58 375.281 155.58 372.125C155.58 368.968 153.02 366.409 149.862 366.409C146.705 366.409 144.145 368.968 144.145 372.125C144.145 375.281 146.705 377.84 149.862 377.84Z" fill="#FDE68A"/>
<path d="M139.377 349.921C142.535 349.921 145.095 347.363 145.095 344.206C145.095 341.049 142.535 338.49 139.377 338.49C136.219 338.49 133.66 341.049 133.66 344.206C133.66 347.363 136.219 349.921 139.377 349.921Z" fill="#FDE68A"/>
<path d="M134.05 320.484C137.158 320.484 139.677 317.966 139.677 314.858C139.677 311.75 137.158 309.232 134.05 309.232C130.941 309.232 128.422 311.75 128.422 314.858C128.422 317.966 130.941 320.484 134.05 320.484Z" fill="#FDE68A"/>
<path d="M134.05 290.667C137.158 290.667 139.677 288.149 139.677 285.042C139.677 281.934 137.158 279.416 134.05 279.416C130.941 279.416 128.422 281.934 128.422 285.042C128.422 288.149 130.941 290.667 134.05 290.667Z" fill="#FDE68A"/>
<path d="M139.377 261.329C142.485 261.329 145.005 258.811 145.005 255.704C145.005 252.597 142.485 250.078 139.377 250.078C136.27 250.078 133.75 252.597 133.75 255.704C133.75 258.811 136.27 261.329 139.377 261.329Z" fill="#FDE68A"/>
<path d="M149.862 233.412C152.971 233.412 155.49 230.893 155.49 227.786C155.49 224.678 152.971 222.16 149.862 222.16C146.754 222.16 144.235 224.678 144.235 227.786C144.235 230.893 146.754 233.412 149.862 233.412Z" fill="#FDE68A"/>
<path d="M165.156 207.811C168.264 207.811 170.783 205.293 170.783 202.185C170.783 199.078 168.264 196.56 165.156 196.56C162.047 196.56 159.528 199.078 159.528 202.185C159.528 205.293 162.047 207.811 165.156 207.811Z" fill="#FDE68A"/>
<path d="M184.787 185.358C187.895 185.358 190.414 182.84 190.414 179.732C190.414 176.625 187.895 174.106 184.787 174.106C181.678 174.106 179.159 176.625 179.159 179.732C179.159 182.84 181.678 185.358 184.787 185.358Z" fill="#FDE68A"/>
<path d="M208.106 166.762C211.215 166.762 213.734 164.244 213.734 161.136C213.734 158.029 211.215 155.511 208.106 155.511C204.998 155.511 202.479 158.029 202.479 161.136C202.479 164.244 204.998 166.762 208.106 166.762Z" fill="#FDE68A"/>
<path d="M234.375 152.633C237.483 152.633 240.002 150.115 240.002 147.008C240.002 143.9 237.483 141.382 234.375 141.382C231.266 141.382 228.747 143.9 228.747 147.008C228.747 150.115 231.266 152.633 234.375 152.633Z" fill="#FDE68A"/>
<path d="M262.742 143.42C265.85 143.42 268.369 140.902 268.369 137.795C268.369 134.687 265.85 132.169 262.742 132.169C259.633 132.169 257.114 134.687 257.114 137.795C257.114 140.902 259.633 143.42 262.742 143.42Z" fill="#FDE68A"/>
<path d="M292.298 139.413C295.406 139.413 297.926 136.895 297.926 133.788C297.926 130.681 295.406 128.162 292.298 128.162C289.19 128.162 286.671 130.681 286.671 133.788C286.671 136.895 289.19 139.413 292.298 139.413Z" fill="#FDE68A"/>
<path d="M322.105 140.752C325.214 140.752 327.732 138.234 327.732 135.127C327.732 132.019 325.214 129.501 322.105 129.501C318.996 129.501 316.478 132.019 316.478 135.127C316.478 138.234 318.996 140.752 322.105 140.752Z" fill="#FDE68A"/>
<path d="M356.769 143.075C357.49 140.002 355.582 136.926 352.508 136.205C349.434 135.484 346.357 137.391 345.636 140.465C344.915 143.538 346.823 146.614 349.897 147.334C352.971 148.055 356.048 146.148 356.769 143.075Z" fill="#FDE68A"/>
<path d="M378.61 159.198C381.768 159.198 384.327 156.64 384.327 153.482C384.327 150.325 381.768 147.767 378.61 147.767C375.451 147.767 372.892 150.325 372.892 153.482C372.892 156.64 375.451 159.198 378.61 159.198Z" fill="#FDE68A"/>
<path d="M403.508 175.626C406.666 175.626 409.226 173.067 409.226 169.91C409.226 166.753 406.666 164.194 403.508 164.194C400.351 164.194 397.791 166.753 397.791 169.91C397.791 173.067 400.351 175.626 403.508 175.626Z" fill="#FDE68A"/>
<path d="M425.069 196.229C428.226 196.229 430.786 193.67 430.786 190.513C430.786 187.357 428.226 184.798 425.069 184.798C421.911 184.798 419.351 187.357 419.351 190.513C419.351 193.67 421.911 196.229 425.069 196.229Z" fill="#FDE68A"/>
<path d="M442.601 220.351C445.758 220.351 448.318 217.792 448.318 214.636C448.318 211.479 445.758 208.92 442.601 208.92C439.443 208.92 436.883 211.479 436.883 214.636C436.883 217.792 439.443 220.351 442.601 220.351Z" fill="#FDE68A"/>
<path d="M456.448 247.183C459.566 246.679 461.684 243.745 461.181 240.628C460.677 237.512 457.741 235.394 454.624 235.898C451.507 236.401 449.388 239.336 449.892 242.452C450.396 245.568 453.331 247.686 456.448 247.183Z" fill="#FDE68A"/>
<path d="M463.482 275.968C466.64 275.968 469.199 273.41 469.199 270.253C469.199 267.095 466.64 264.537 463.482 264.537C460.323 264.537 457.764 267.095 457.764 270.253C457.764 273.41 460.323 275.968 463.482 275.968Z" fill="#FDE68A"/>
<path d="M499.435 304.476C501.934 304.476 503.953 302.448 503.953 299.96C503.953 297.472 501.924 295.443 499.435 295.443C496.947 295.443 494.917 297.472 494.917 299.96C494.917 302.448 496.947 304.476 499.435 304.476Z" fill="#FDE68A"/>
<path d="M497.196 334.224C499.695 334.224 501.714 332.195 501.714 329.707C501.714 327.219 499.685 325.19 497.196 325.19C494.707 325.19 492.678 327.219 492.678 329.707C492.678 332.195 494.707 334.224 497.196 334.224Z" fill="#FDE68A"/>
<path d="M490.559 363.302C493.058 363.302 495.077 361.273 495.077 358.785C495.077 356.297 493.048 354.269 490.559 354.269C488.071 354.269 486.042 356.297 486.042 358.785C486.042 361.273 488.071 363.302 490.559 363.302Z" fill="#FDE68A"/>
<path d="M479.654 391.08C482.153 391.08 484.172 389.051 484.172 386.563C484.172 384.075 482.143 382.047 479.654 382.047C477.165 382.047 475.136 384.075 475.136 386.563C475.136 389.051 477.165 391.08 479.654 391.08Z" fill="#FDE68A"/>
<path d="M464.741 416.91C467.24 416.91 469.259 414.882 469.259 412.393C469.259 409.905 467.23 407.877 464.741 407.877C462.252 407.877 460.223 409.905 460.223 412.393C460.223 414.882 462.252 416.91 464.741 416.91Z" fill="#FDE68A"/>
<path d="M446.129 440.232C448.628 440.232 450.647 438.204 450.647 435.716C450.647 433.228 448.618 431.199 446.129 431.199C443.64 431.199 441.611 433.228 441.611 435.716C441.611 438.204 443.64 440.232 446.129 440.232Z" fill="#FDE68A"/>
<path d="M424.259 460.527C426.758 460.527 428.777 458.499 428.777 456.011C428.777 453.523 426.748 451.494 424.259 451.494C421.77 451.494 419.741 453.523 419.741 456.011C419.741 458.499 421.77 460.527 424.259 460.527Z" fill="#FDE68A"/>
<path d="M399.6 477.334C402.099 477.334 404.118 475.305 404.118 472.817C404.118 470.329 402.089 468.301 399.6 468.301C397.111 468.301 395.082 470.329 395.082 472.817C395.082 475.305 397.111 477.334 399.6 477.334Z" fill="#FDE68A"/>
<path d="M372.712 490.274C375.211 490.274 377.23 488.246 377.23 485.758C377.23 483.27 375.201 481.241 372.712 481.241C370.223 481.241 368.194 483.27 368.194 485.758C368.194 488.246 370.223 490.274 372.712 490.274Z" fill="#FDE68A"/>
<path d="M345.099 498.971C347.544 498.475 349.124 496.09 348.627 493.646C348.131 491.201 345.746 489.622 343.301 490.119C340.855 490.615 339.276 492.999 339.772 495.444C340.269 497.888 342.654 499.467 345.099 498.971Z" fill="#FDE68A"/>
<path d="M314.688 503.514C317.184 503.514 319.206 501.491 319.206 498.997C319.206 496.503 317.184 494.48 314.688 494.48C312.193 494.48 310.17 496.503 310.17 498.997C310.17 501.491 312.193 503.514 314.688 503.514Z" fill="#FDE68A"/>
<path d="M289.141 500.387C289.917 498.016 288.623 495.466 286.251 494.69C283.88 493.915 281.328 495.208 280.553 497.579C279.777 499.95 281.071 502.501 283.443 503.276C285.814 504.051 288.366 502.758 289.141 500.387Z" fill="#FDE68A"/>
<path d="M259.04 497.115C260.474 495.073 259.982 492.256 257.94 490.823C255.898 489.389 253.08 489.882 251.646 491.923C250.212 493.964 250.705 496.781 252.747 498.215C254.789 499.648 257.606 499.156 259.04 497.115Z" fill="#FDE68A"/>
<path d="M226.818 490.274C229.317 490.274 231.336 488.246 231.336 485.758C231.336 483.27 229.307 481.241 226.818 481.241C224.329 481.241 222.3 483.27 222.3 485.758C222.3 488.246 224.329 490.274 226.818 490.274Z" fill="#FDE68A"/>
<path d="M199.94 477.234C202.389 477.234 204.368 475.256 204.368 472.807C204.368 470.359 202.389 468.381 199.94 468.381C197.491 468.381 195.512 470.359 195.512 472.807C195.512 475.256 197.491 477.234 199.94 477.234Z" fill="#FDE68A"/>
<path d="M175.281 460.437C177.73 460.437 179.709 458.459 179.709 456.011C179.709 453.562 177.73 451.584 175.281 451.584C172.832 451.584 170.853 453.562 170.853 456.011C170.853 458.459 172.832 460.437 175.281 460.437Z" fill="#FDE68A"/>
<path d="M153.401 440.142C155.85 440.142 157.829 438.164 157.829 435.716C157.829 433.268 155.85 431.289 153.401 431.289C150.952 431.289 148.973 433.268 148.973 435.716C148.973 438.164 150.952 440.142 153.401 440.142Z" fill="#FDE68A"/>
<path d="M134.799 416.82C137.248 416.82 139.227 414.842 139.227 412.393C139.227 409.945 137.248 407.967 134.799 407.967C132.35 407.967 130.371 409.945 130.371 412.393C130.371 414.842 132.35 416.82 134.799 416.82Z" fill="#FDE68A"/>
<path d="M119.876 390.98C122.325 390.98 124.304 389.002 124.304 386.554C124.304 384.105 122.325 382.127 119.876 382.127C117.427 382.127 115.448 384.105 115.448 386.554C115.448 389.002 117.427 390.98 119.876 390.98Z" fill="#FDE68A"/>
<path d="M108.971 363.212C111.42 363.212 113.399 361.233 113.399 358.785C113.399 356.337 111.42 354.358 108.971 354.358C106.522 354.358 104.543 356.337 104.543 358.785C104.543 361.233 106.522 363.212 108.971 363.212Z" fill="#FDE68A"/>
<path d="M102.334 334.124C104.783 334.124 106.762 332.145 106.762 329.697C106.762 327.249 104.783 325.271 102.334 325.271C99.8849 325.271 97.9058 327.249 97.9058 329.697C97.9058 332.145 99.8849 334.124 102.334 334.124Z" fill="#FDE68A"/>
<path d="M100.105 304.377C102.554 304.377 104.533 302.398 104.533 299.95C104.533 297.502 102.554 295.523 100.105 295.523C97.6559 295.523 95.6768 297.502 95.6768 299.95C95.6768 302.398 97.6559 304.377 100.105 304.377Z" fill="#FDE68A"/>
<path d="M102.334 274.63C104.783 274.63 106.762 272.651 106.762 270.203C106.762 267.755 104.783 265.776 102.334 265.776C99.8849 265.776 97.9058 267.755 97.9058 270.203C97.9058 272.651 99.8849 274.63 102.334 274.63Z" fill="#FDE68A"/>
<path d="M108.971 245.452C111.37 245.452 113.309 243.513 113.309 241.115C113.309 238.717 111.37 236.778 108.971 236.778C106.572 236.778 104.633 238.717 104.633 241.115C104.633 243.513 106.572 245.452 108.971 245.452Z" fill="#FDE68A"/>
<path d="M119.876 217.683C122.272 217.683 124.214 215.742 124.214 213.346C124.214 210.951 122.272 209.01 119.876 209.01C117.48 209.01 115.538 210.951 115.538 213.346C115.538 215.742 117.48 217.683 119.876 217.683Z" fill="#FDE68A"/>
<path d="M134.799 191.853C137.195 191.853 139.138 189.911 139.138 187.516C139.138 185.121 137.195 183.18 134.799 183.18C132.404 183.18 130.461 185.121 130.461 187.516C130.461 189.911 132.404 191.853 134.799 191.853Z" fill="#FDE68A"/>
<path d="M153.401 168.521C155.8 168.521 157.739 166.582 157.739 164.184C157.739 161.786 155.8 159.848 153.401 159.848C151.002 159.848 149.063 161.786 149.063 164.184C149.063 166.582 151.002 168.521 153.401 168.521Z" fill="#FDE68A"/>
<path d="M175.281 148.236C177.677 148.236 179.619 146.294 179.619 143.899C179.619 141.504 177.677 139.562 175.281 139.562C172.885 139.562 170.943 141.504 170.943 143.899C170.943 146.294 172.885 148.236 175.281 148.236Z" fill="#FDE68A"/>
<path d="M199.94 131.429C202.336 131.429 204.278 129.488 204.278 127.093C204.278 124.697 202.336 122.756 199.94 122.756C197.544 122.756 195.602 124.697 195.602 127.093C195.602 129.488 197.544 131.429 199.94 131.429Z" fill="#FDE68A"/>
<path d="M226.818 118.489C229.217 118.489 231.156 116.55 231.156 114.152C231.156 111.754 229.217 109.815 226.818 109.815C224.419 109.815 222.48 111.754 222.48 114.152C222.48 116.55 224.419 118.489 226.818 118.489Z" fill="#FDE68A"/>
<path d="M255.335 109.786C257.784 109.786 259.763 107.807 259.763 105.359C259.763 102.911 257.784 100.933 255.335 100.933C252.886 100.933 250.907 102.911 250.907 105.359C250.907 107.807 252.886 109.786 255.335 109.786Z" fill="#FDE68A"/>
<path d="M284.852 105.34C287.301 105.34 289.28 103.361 289.28 100.913C289.28 98.4648 287.301 96.4863 284.852 96.4863C282.403 96.4863 280.424 98.4648 280.424 100.913C280.424 103.361 282.403 105.34 284.852 105.34Z" fill="#FDE68A"/>
<path d="M314.688 105.34C317.137 105.34 319.116 103.361 319.116 100.913C319.116 98.4648 317.137 96.4863 314.688 96.4863C312.239 96.4863 310.26 98.4648 310.26 100.913C310.26 103.361 312.239 105.34 314.688 105.34Z" fill="#FDE68A"/>
<path d="M344.195 109.786C346.644 109.786 348.623 107.807 348.623 105.359C348.623 102.911 346.644 100.933 344.195 100.933C341.746 100.933 339.767 102.911 339.767 105.359C339.767 107.807 341.746 109.786 344.195 109.786Z" fill="#FDE68A"/>
<path d="M372.712 118.579C375.161 118.579 377.14 116.6 377.14 114.152C377.14 111.704 375.161 109.726 372.712 109.726C370.263 109.726 368.284 111.704 368.284 114.152C368.284 116.6 370.263 118.579 372.712 118.579Z" fill="#FDE68A"/>
<path d="M399.6 131.519C402.049 131.519 404.028 129.541 404.028 127.093C404.028 124.644 402.049 122.666 399.6 122.666C397.151 122.666 395.172 124.644 395.172 127.093C395.172 129.541 397.151 131.519 399.6 131.519Z" fill="#FDE68A"/>
<path d="M424.259 148.326C426.708 148.326 428.687 146.347 428.687 143.899C428.687 141.451 426.708 139.473 424.259 139.473C421.81 139.473 419.831 141.451 419.831 143.899C419.831 146.347 421.81 148.326 424.259 148.326Z" fill="#FDE68A"/>
<path d="M446.129 168.621C448.578 168.621 450.557 166.642 450.557 164.194C450.557 161.746 448.578 159.768 446.129 159.768C443.68 159.768 441.701 161.746 441.701 164.194C441.701 166.642 443.68 168.621 446.129 168.621Z" fill="#FDE68A"/>
<path d="M464.741 191.943C467.19 191.943 469.169 189.965 469.169 187.516C469.169 185.068 467.19 183.09 464.741 183.09C462.292 183.09 460.313 185.068 460.313 187.516C460.313 189.965 462.292 191.943 464.741 191.943Z" fill="#FDE68A"/>
<path d="M479.654 217.773C482.103 217.773 484.082 215.795 484.082 213.347C484.082 210.898 482.103 208.92 479.654 208.92C477.205 208.92 475.226 210.898 475.226 213.347C475.226 215.795 477.205 217.773 479.654 217.773Z" fill="#FDE68A"/>
<path d="M490.559 245.641C493.058 245.641 495.077 243.613 495.077 241.125C495.077 238.637 493.048 236.608 490.559 236.608C488.071 236.608 486.042 238.637 486.042 241.125C486.042 243.613 488.071 245.641 490.559 245.641Z" fill="#FDE68A"/>
<path d="M497.196 274.72C499.695 274.72 501.714 272.691 501.714 270.203C501.714 267.715 499.685 265.687 497.196 265.687C494.707 265.687 492.678 267.715 492.678 270.203C492.678 272.691 494.707 274.72 497.196 274.72Z" fill="#FDE68A"/>
<path d="M532.71 303.178C534.489 303.178 535.939 301.729 535.939 299.95C535.939 298.172 534.489 296.723 532.71 296.723C530.931 296.723 529.481 298.172 529.481 299.95C529.481 301.729 530.931 303.178 532.71 303.178Z" fill="#FDE68A"/>
<path d="M530.791 332.955C532.57 332.955 534.02 331.506 534.02 329.728C534.02 327.949 532.57 326.5 530.791 326.5C529.012 326.5 527.562 327.949 527.562 329.728C527.562 331.506 529.012 332.955 530.791 332.955Z" fill="#FDE68A"/>
<path d="M525.094 362.342C526.933 362.342 528.412 360.853 528.412 359.024C528.412 357.196 526.923 355.707 525.094 355.707C523.265 355.707 521.775 357.196 521.775 359.024C521.775 360.853 523.265 362.342 525.094 362.342Z" fill="#FDE68A"/>
<path d="M515.688 390.66C517.527 390.66 519.006 389.171 519.006 387.343C519.006 385.514 517.517 384.025 515.688 384.025C513.858 384.025 512.369 385.514 512.369 387.343C512.369 389.171 513.858 390.66 515.688 390.66Z" fill="#FDE68A"/>
<path d="M502.734 417.45C504.513 417.45 505.962 416.001 505.962 414.223C505.962 412.444 504.513 410.995 502.734 410.995C500.955 410.995 499.505 412.444 499.505 414.223C499.505 416.001 500.955 417.45 502.734 417.45Z" fill="#FDE68A"/>
<path d="M486.451 442.551C488.29 442.551 489.77 441.062 489.77 439.233C489.77 437.405 488.281 435.916 486.451 435.916C484.622 435.916 483.133 437.405 483.133 439.233C483.133 441.062 484.622 442.551 486.451 442.551Z" fill="#FDE68A"/>
<path d="M467.1 465.184C468.879 465.184 470.328 463.735 470.328 461.956C470.328 460.177 468.879 458.729 467.1 458.729C465.32 458.729 463.871 460.177 463.871 461.956C463.871 463.735 465.32 465.184 467.1 465.184Z" fill="#FDE68A"/>
<path d="M445 485.338C446.839 485.338 448.318 483.849 448.318 482.021C448.318 480.192 446.829 478.703 445 478.703C443.17 478.703 441.681 480.192 441.681 482.021C441.681 483.849 443.17 485.338 445 485.338Z" fill="#FDE68A"/>
<path d="M420.521 502.404C422.36 502.404 423.839 500.916 423.839 499.087C423.839 497.258 422.35 495.77 420.521 495.77C418.691 495.77 417.202 497.258 417.202 499.087C417.202 500.916 418.691 502.404 420.521 502.404Z" fill="#FDE68A"/>
<path d="M394.063 516.204C395.902 516.204 397.381 514.715 397.381 512.887C397.381 511.058 395.892 509.569 394.063 509.569C392.233 509.569 390.744 511.058 390.744 512.887C390.744 514.715 392.233 516.204 394.063 516.204Z" fill="#FDE68A"/>
<path d="M366.045 526.517C367.884 526.517 369.364 525.028 369.364 523.199C369.364 521.371 367.874 519.882 366.045 519.882C364.216 519.882 362.727 521.371 362.727 523.199C362.727 525.028 364.216 526.517 366.045 526.517Z" fill="#FDE68A"/>
<path d="M336.948 533.061C338.727 533.061 340.177 531.613 340.177 529.834C340.177 528.055 338.727 526.606 336.948 526.606C335.169 526.606 333.72 528.055 333.72 529.834C333.72 531.613 335.169 533.061 336.948 533.061Z" fill="#FDE68A"/>
<path d="M307.232 535.929C309.011 535.929 310.461 534.48 310.461 532.701C310.461 530.923 309.011 529.474 307.232 529.474C305.453 529.474 304.003 530.923 304.003 532.701C304.003 534.48 305.453 535.929 307.232 535.929Z" fill="#FDE68A"/>
<path d="M277.405 534.97C279.185 534.97 280.634 533.521 280.634 531.742C280.634 529.964 279.185 528.515 277.405 528.515C275.626 528.515 274.177 529.964 274.177 531.742C274.177 533.521 275.626 534.97 277.405 534.97Z" fill="#FDE68A"/>
<path d="M247.939 530.203C249.718 530.203 251.167 528.754 251.167 526.976C251.167 525.197 249.718 523.748 247.939 523.748C246.159 523.748 244.71 525.197 244.71 526.976C244.71 528.754 246.159 530.203 247.939 530.203Z" fill="#FDE68A"/>
<path d="M219.321 521.72C221.101 521.72 222.55 520.271 222.55 518.492C222.55 516.714 221.101 515.265 219.321 515.265C217.542 515.265 216.093 516.714 216.093 518.492C216.093 520.271 217.542 521.72 219.321 521.72Z" fill="#FDE68A"/>
<path d="M192.023 509.64C193.803 509.64 195.252 508.191 195.252 506.412C195.252 504.633 193.803 503.185 192.023 503.185C190.244 503.185 188.795 504.633 188.795 506.412C188.795 508.191 190.244 509.64 192.023 509.64Z" fill="#FDE68A"/>
<path d="M166.495 494.171C168.274 494.171 169.724 492.722 169.724 490.943C169.724 489.165 168.274 487.716 166.495 487.716C164.716 487.716 163.267 489.165 163.267 490.943C163.267 492.722 164.716 494.171 166.495 494.171Z" fill="#FDE68A"/>
<path d="M143.166 475.565C144.945 475.565 146.394 474.117 146.394 472.338C146.394 470.559 144.945 469.11 143.166 469.11C141.386 469.11 139.937 470.559 139.937 472.338C139.937 474.117 141.386 475.565 143.166 475.565Z" fill="#FDE68A"/>
<path d="M122.395 454.132C124.174 454.132 125.624 452.683 125.624 450.904C125.624 449.126 124.174 447.677 122.395 447.677C120.616 447.677 119.167 449.126 119.167 450.904C119.167 452.683 120.616 454.132 122.395 454.132Z" fill="#FDE68A"/>
<path d="M104.543 430.22C106.322 430.22 107.772 428.771 107.772 426.992C107.772 425.214 106.322 423.765 104.543 423.765C102.764 423.765 101.314 425.214 101.314 426.992C101.314 428.771 102.764 430.22 104.543 430.22Z" fill="#FDE68A"/>
<path d="M89.8993 404.131C91.6286 404.131 93.0379 402.722 93.0379 400.993C93.0379 399.264 91.6286 397.855 89.8993 397.855C88.1701 397.855 86.7607 399.264 86.7607 400.993C86.7607 402.722 88.1701 404.131 89.8993 404.131Z" fill="#FDE68A"/>
<path d="M78.6947 376.471C80.4281 376.471 81.8333 375.067 81.8333 373.334C81.8333 371.601 80.4281 370.196 78.6947 370.196C76.9614 370.196 75.5562 371.601 75.5562 373.334C75.5562 375.067 76.9614 376.471 78.6947 376.471Z" fill="#FDE68A"/>
<path d="M71.1279 347.603C72.8571 347.603 74.2664 346.194 74.2664 344.466C74.2664 342.737 72.8571 341.328 71.1279 341.328C69.3986 341.328 67.9893 342.737 67.9893 344.466C67.9893 346.194 69.3986 347.603 71.1279 347.603Z" fill="#FDE68A"/>
<path d="M67.3095 318.007C69.0387 318.007 70.4481 316.598 70.4481 314.869C70.4481 313.14 69.0387 311.731 67.3095 311.731C65.5803 311.731 64.1709 313.14 64.1709 314.869C64.1709 316.598 65.5803 318.007 67.3095 318.007Z" fill="#FDE68A"/>
<path d="M67.3095 288.169C69.0387 288.169 70.4481 286.76 70.4481 285.031C70.4481 283.302 69.0387 281.894 67.3095 281.894C65.5803 281.894 64.1709 283.302 64.1709 285.031C64.1709 286.76 65.5803 288.169 67.3095 288.169Z" fill="#FDE68A"/>
<path d="M71.1279 258.572C72.8571 258.572 74.2664 257.163 74.2664 255.434C74.2664 253.706 72.8571 252.297 71.1279 252.297C69.3986 252.297 67.9893 253.706 67.9893 255.434C67.9893 257.163 69.3986 258.572 71.1279 258.572Z" fill="#FDE68A"/>
<path d="M78.6947 229.714C80.4281 229.714 81.8333 228.309 81.8333 226.576C81.8333 224.843 80.4281 223.438 78.6947 223.438C76.9614 223.438 75.5562 224.843 75.5562 226.576C75.5562 228.309 76.9614 229.714 78.6947 229.714Z" fill="#FDE68A"/>
<path d="M89.8993 202.055C91.6286 202.055 93.0379 200.647 93.0379 198.918C93.0379 197.189 91.6286 195.78 89.8993 195.78C88.1701 195.78 86.7607 197.189 86.7607 198.918C86.7607 200.647 88.1701 202.055 89.8993 202.055Z" fill="#FDE68A"/>
<path d="M104.543 176.055C106.276 176.055 107.681 174.651 107.681 172.918C107.681 171.185 106.276 169.78 104.543 169.78C102.809 169.78 101.404 171.185 101.404 172.918C101.404 174.651 102.809 176.055 104.543 176.055Z" fill="#FDE68A"/>
<path d="M122.395 152.134C124.124 152.134 125.534 150.725 125.534 148.996C125.534 147.267 124.124 145.858 122.395 145.858C120.666 145.858 119.256 147.267 119.256 148.996C119.256 150.725 120.666 152.134 122.395 152.134Z" fill="#FDE68A"/>
<path d="M143.165 130.7C144.899 130.7 146.304 129.295 146.304 127.562C146.304 125.83 144.899 124.425 143.165 124.425C141.432 124.425 140.027 125.83 140.027 127.562C140.027 129.295 141.432 130.7 143.165 130.7Z" fill="#FDE68A"/>
<path d="M166.495 112.095C168.224 112.095 169.634 110.686 169.634 108.957C169.634 107.228 168.224 105.819 166.495 105.819C164.766 105.819 163.356 107.228 163.356 108.957C163.356 110.686 164.766 112.095 166.495 112.095Z" fill="#FDE68A"/>
<path d="M192.023 96.6258C193.753 96.6258 195.162 95.2169 195.162 93.4882C195.162 91.7595 193.753 90.3506 192.023 90.3506C190.294 90.3506 188.885 91.7595 188.885 93.4882C188.885 95.2169 190.294 96.6258 192.023 96.6258Z" fill="#FDE68A"/>
<path d="M219.321 84.5555C221.055 84.5555 222.46 83.1507 222.46 81.4179C222.46 79.685 221.055 78.2803 219.321 78.2803C217.588 78.2803 216.183 79.685 216.183 81.4179C216.183 83.1507 217.588 84.5555 219.321 84.5555Z" fill="#FDE68A"/>
<path d="M247.938 76.0613C249.672 76.0613 251.077 74.6566 251.077 72.9237C251.077 71.1909 249.672 69.7861 247.938 69.7861C246.205 69.7861 244.8 71.1909 244.8 72.9237C244.8 74.6566 246.205 76.0613 247.938 76.0613Z" fill="#FDE68A"/>
<path d="M277.405 71.2957C279.139 71.2957 280.544 69.8909 280.544 68.1581C280.544 66.4253 279.139 65.0205 277.405 65.0205C275.672 65.0205 274.267 66.4253 274.267 68.1581C274.267 69.8909 275.672 71.2957 277.405 71.2957Z" fill="#FDE68A"/>
<path d="M307.232 70.3465C308.965 70.3465 310.37 68.9417 310.37 67.2089C310.37 65.476 308.965 64.0713 307.232 64.0713C305.498 64.0713 304.093 65.476 304.093 67.2089C304.093 68.9417 305.498 70.3465 307.232 70.3465Z" fill="#FDE68A"/>
<path d="M336.948 73.2039C338.677 73.2039 340.087 71.795 340.087 70.0663C340.087 68.3376 338.677 66.9287 336.948 66.9287C335.219 66.9287 333.81 68.3376 333.81 70.0663C333.81 71.795 335.219 73.2039 336.948 73.2039Z" fill="#FDE68A"/>
<path d="M366.045 79.8484C367.779 79.8484 369.184 78.4437 369.184 76.7108C369.184 74.978 367.779 73.5732 366.045 73.5732C364.312 73.5732 362.907 74.978 362.907 76.7108C362.907 78.4437 364.312 79.8484 366.045 79.8484Z" fill="#FDE68A"/>
<path d="M394.062 90.1512C395.792 90.1512 397.201 88.7422 397.201 87.0136C397.201 85.2849 395.792 83.876 394.062 83.876C392.333 83.876 390.924 85.2849 390.924 87.0136C390.924 88.7422 392.333 90.1512 394.062 90.1512Z" fill="#FDE68A"/>
<path d="M420.521 104.05C422.3 104.05 423.749 102.601 423.749 100.822C423.749 99.0436 422.3 97.5947 420.521 97.5947C418.741 97.5947 417.292 99.0436 417.292 100.822C417.292 102.601 418.741 104.05 420.521 104.05Z" fill="#FDE68A"/>
<path d="M445 121.117C446.779 121.117 448.228 119.668 448.228 117.89C448.228 116.111 446.779 114.662 445 114.662C443.22 114.662 441.771 116.111 441.771 117.89C441.771 119.668 443.22 121.117 445 121.117Z" fill="#FDE68A"/>
<path d="M467.1 141.182C468.879 141.182 470.328 139.733 470.328 137.954C470.328 136.175 468.879 134.727 467.1 134.727C465.32 134.727 463.871 136.175 463.871 137.954C463.871 139.733 465.32 141.182 467.1 141.182Z" fill="#FDE68A"/>
<path d="M486.451 163.904C488.23 163.904 489.68 162.455 489.68 160.677C489.68 158.898 488.23 157.449 486.451 157.449C484.672 157.449 483.223 158.898 483.223 160.677C483.223 162.455 484.672 163.904 486.451 163.904Z" fill="#FDE68A"/>
<path d="M502.734 188.905C504.513 188.905 505.962 187.456 505.962 185.678C505.962 183.899 504.513 182.45 502.734 182.45C500.955 182.45 499.505 183.899 499.505 185.678C499.505 187.456 500.955 188.905 502.734 188.905Z" fill="#FDE68A"/>
<path d="M515.688 215.795C517.467 215.795 518.917 214.346 518.917 212.567C518.917 210.789 517.467 209.34 515.688 209.34C513.909 209.34 512.459 210.789 512.459 212.567C512.459 214.346 513.909 215.795 515.688 215.795Z" fill="#FDE68A"/>
<path d="M525.094 244.113C526.873 244.113 528.322 242.664 528.322 240.886C528.322 239.107 526.873 237.658 525.094 237.658C523.315 237.658 521.865 239.107 521.865 240.886C521.865 242.664 523.315 244.113 525.094 244.113Z" fill="#FDE68A"/>
<path d="M530.791 273.4C532.57 273.4 534.02 271.951 534.02 270.173C534.02 268.394 532.57 266.945 530.791 266.945C529.012 266.945 527.562 268.394 527.562 270.173C527.562 271.951 529.012 273.4 530.791 273.4Z" fill="#FDE68A"/>
<path d="M565.985 301.979C567.105 301.979 568.014 301.069 568.014 299.95C568.014 298.831 567.105 297.922 565.985 297.922C564.866 297.922 563.956 298.831 563.956 299.95C563.956 301.069 564.866 301.979 565.985 301.979Z" fill="#FDE68A"/>
<path d="M564.306 331.776C565.425 331.776 566.335 330.866 566.335 329.747C566.335 328.628 565.425 327.719 564.306 327.719C563.186 327.719 562.277 328.628 562.277 329.747C562.277 330.866 563.186 331.776 564.306 331.776Z" fill="#FDE68A"/>
<path d="M559.308 361.203C560.428 361.203 561.337 360.294 561.337 359.175C561.337 358.056 560.428 357.146 559.308 357.146C558.189 357.146 557.279 358.056 557.279 359.175C557.279 360.294 558.189 361.203 559.308 361.203Z" fill="#FDE68A"/>
<path d="M551.042 389.881C552.161 389.881 553.071 388.972 553.071 387.853C553.071 386.734 552.161 385.824 551.042 385.824C549.922 385.824 549.013 386.734 549.013 387.853C549.013 388.972 549.922 389.881 551.042 389.881Z" fill="#FDE68A"/>
<path d="M539.617 417.449C540.736 417.449 541.646 416.54 541.646 415.421C541.646 414.302 540.736 413.393 539.617 413.393C538.497 413.393 537.588 414.302 537.588 415.421C537.588 416.54 538.497 417.449 539.617 417.449Z" fill="#FDE68A"/>
<path d="M525.184 443.57C526.303 443.57 527.213 442.66 527.213 441.541C527.213 440.422 526.303 439.513 525.184 439.513C524.064 439.513 523.155 440.422 523.155 441.541C523.155 442.66 524.064 443.57 525.184 443.57Z" fill="#FDE68A"/>
<path d="M507.902 467.911C509.021 467.911 509.931 467.002 509.931 465.883C509.931 464.764 509.021 463.854 507.902 463.854C506.782 463.854 505.873 464.764 505.873 465.883C505.873 467.002 506.782 467.911 507.902 467.911Z" fill="#FDE68A"/>
<path d="M488.011 490.164C489.13 490.164 490.04 489.255 490.04 488.136C490.04 487.017 489.13 486.107 488.011 486.107C486.891 486.107 485.981 487.017 485.981 488.136C485.981 489.255 486.891 490.164 488.011 490.164Z" fill="#FDE68A"/>
<path d="M465.75 510.049C466.87 510.049 467.779 509.14 467.779 508.021C467.779 506.901 466.87 505.992 465.75 505.992C464.631 505.992 463.721 506.901 463.721 508.021C463.721 509.14 464.631 510.049 465.75 510.049Z" fill="#FDE68A"/>
<path d="M441.401 527.325C442.521 527.325 443.43 526.416 443.43 525.297C443.43 524.178 442.521 523.269 441.401 523.269C440.282 523.269 439.372 524.178 439.372 525.297C439.372 526.416 440.282 527.325 441.401 527.325Z" fill="#FDE68A"/>
<path d="M415.273 541.754C416.393 541.754 417.302 540.845 417.302 539.726C417.302 538.607 416.393 537.697 415.273 537.697C414.154 537.697 413.244 538.607 413.244 539.726C413.244 540.845 414.154 541.754 415.273 541.754Z" fill="#FDE68A"/>
<path d="M387.696 553.176C388.815 553.176 389.725 552.267 389.725 551.148C389.725 550.028 388.815 549.119 387.696 549.119C386.576 549.119 385.667 550.028 385.667 551.148C385.667 552.267 386.576 553.176 387.696 553.176Z" fill="#FDE68A"/>
<path d="M359.009 561.44C360.128 561.44 361.038 560.53 361.038 559.411C361.038 558.292 360.128 557.383 359.009 557.383C357.889 557.383 356.979 558.292 356.979 559.411C356.979 560.53 357.889 561.44 359.009 561.44Z" fill="#FDE68A"/>
<path d="M329.572 566.436C330.691 566.436 331.601 565.527 331.601 564.407C331.601 563.288 330.691 562.379 329.572 562.379C328.452 562.379 327.542 563.288 327.542 564.407C327.542 565.527 328.452 566.436 329.572 566.436Z" fill="#FDE68A"/>
<path d="M299.765 568.115C300.884 568.115 301.794 567.205 301.794 566.086C301.794 564.967 300.884 564.058 299.765 564.058C298.645 564.058 297.736 564.967 297.736 566.086C297.736 567.205 298.645 568.115 299.765 568.115Z" fill="#FDE68A"/>
<path d="M269.958 566.436C271.078 566.436 271.987 565.527 271.987 564.407C271.987 563.288 271.078 562.379 269.958 562.379C268.839 562.379 267.929 563.288 267.929 564.407C267.929 565.527 268.839 566.436 269.958 566.436Z" fill="#FDE68A"/>
<path d="M240.532 561.35C241.601 561.35 242.471 560.48 242.471 559.411C242.471 558.342 241.601 557.473 240.532 557.473C239.462 557.473 238.593 558.342 238.593 559.411C238.593 560.48 239.462 561.35 240.532 561.35Z" fill="#FDE68A"/>
<path d="M211.845 553.086C212.914 553.086 213.784 552.217 213.784 551.148C213.784 550.078 212.914 549.209 211.845 549.209C210.775 549.209 209.906 550.078 209.906 551.148C209.906 552.217 210.775 553.086 211.845 553.086Z" fill="#FDE68A"/>
<path d="M184.257 541.665C185.327 541.665 186.196 540.796 186.196 539.727C186.196 538.657 185.327 537.788 184.257 537.788C183.187 537.788 182.318 538.657 182.318 539.727C182.318 540.796 183.187 541.665 184.257 541.665Z" fill="#FDE68A"/>
<path d="M158.129 527.226C159.198 527.226 160.068 526.356 160.068 525.287C160.068 524.218 159.198 523.349 158.129 523.349C157.059 523.349 156.189 524.218 156.189 525.287C156.189 526.356 157.059 527.226 158.129 527.226Z" fill="#FDE68A"/>
<path d="M133.78 509.959C134.849 509.959 135.719 509.09 135.719 508.021C135.719 506.951 134.849 506.082 133.78 506.082C132.71 506.082 131.841 506.951 131.841 508.021C131.841 509.09 132.71 509.959 133.78 509.959Z" fill="#FDE68A"/>
<path d="M111.52 490.074C112.589 490.074 113.459 489.205 113.459 488.136C113.459 487.067 112.589 486.197 111.52 486.197C110.45 486.197 109.581 487.067 109.581 488.136C109.581 489.205 110.45 490.074 111.52 490.074Z" fill="#FDE68A"/>
<path d="M91.6286 467.821C92.6981 467.821 93.5677 466.952 93.5677 465.883C93.5677 464.814 92.6981 463.944 91.6286 463.944C90.5591 463.944 89.6895 464.814 89.6895 465.883C89.6895 466.952 90.5591 467.821 91.6286 467.821Z" fill="#FDE68A"/>
<path d="M74.3566 443.48C75.4261 443.48 76.2957 442.61 76.2957 441.541C76.2957 440.472 75.4261 439.603 74.3566 439.603C73.2871 439.603 72.4175 440.472 72.4175 441.541C72.4175 442.61 73.2871 443.48 74.3566 443.48Z" fill="#FDE68A"/>
<path d="M59.9132 417.36C60.9828 417.36 61.8524 416.491 61.8524 415.422C61.8524 414.353 60.9828 413.483 59.9132 413.483C58.8437 413.483 57.9741 414.353 57.9741 415.422C57.9741 416.491 58.8437 417.36 59.9132 417.36Z" fill="#FDE68A"/>
<path d="M48.488 389.791C49.5575 389.791 50.4271 388.922 50.4271 387.853C50.4271 386.783 49.5575 385.914 48.488 385.914C47.4184 385.914 46.5488 386.783 46.5488 387.853C46.5488 388.922 47.4184 389.791 48.488 389.791Z" fill="#FDE68A"/>
<path d="M40.2217 361.014C41.2413 361.014 42.0709 360.184 42.0709 359.165C42.0709 358.146 41.2413 357.316 40.2217 357.316C39.2022 357.316 38.3726 358.146 38.3726 359.165C38.3726 360.184 39.2022 361.014 40.2217 361.014Z" fill="#FDE68A"/>
<path d="M35.2242 331.596C36.2437 331.596 37.0733 330.766 37.0733 329.747C37.0733 328.728 36.2437 327.898 35.2242 327.898C34.2046 327.898 33.375 328.728 33.375 329.747C33.375 330.766 34.2046 331.596 35.2242 331.596Z" fill="#FDE68A"/>
<path d="M33.5547 301.799C34.5743 301.799 35.4039 300.969 35.4039 299.95C35.4039 298.931 34.5743 298.102 33.5547 298.102C32.5352 298.102 31.7056 298.931 31.7056 299.95C31.7056 300.969 32.5352 301.799 33.5547 301.799Z" fill="#FDE68A"/>
<path d="M35.2242 272.002C36.2437 272.002 37.0733 271.172 37.0733 270.153C37.0733 269.134 36.2437 268.305 35.2242 268.305C34.2046 268.305 33.375 269.134 33.375 270.153C33.375 271.172 34.2046 272.002 35.2242 272.002Z" fill="#FDE68A"/>
<path d="M40.2217 242.574C41.2413 242.574 42.0709 241.745 42.0709 240.726C42.0709 239.706 41.2413 238.877 40.2217 238.877C39.2022 238.877 38.3726 239.706 38.3726 240.726C38.3726 241.745 39.2022 242.574 40.2217 242.574Z" fill="#FDE68A"/>
<path d="M48.4883 213.896C49.5079 213.896 50.3375 213.067 50.3375 212.048C50.3375 211.029 49.5079 210.199 48.4883 210.199C47.4688 210.199 46.6392 211.029 46.6392 212.048C46.6392 213.067 47.4688 213.896 48.4883 213.896Z" fill="#FDE68A"/>
<path d="M59.9131 186.327C60.9327 186.327 61.7623 185.498 61.7623 184.478C61.7623 183.459 60.9327 182.63 59.9131 182.63C58.8936 182.63 58.064 183.459 58.064 184.478C58.064 185.498 58.8936 186.327 59.9131 186.327Z" fill="#FDE68A"/>
<path d="M74.3565 160.207C75.376 160.207 76.2057 159.378 76.2057 158.358C76.2057 157.339 75.376 156.51 74.3565 156.51C73.3369 156.51 72.5073 157.339 72.5073 158.358C72.5073 159.378 73.3369 160.207 74.3565 160.207Z" fill="#FDE68A"/>
<path d="M91.629 135.866C92.6485 135.866 93.4781 135.037 93.4781 134.018C93.4781 132.998 92.6485 132.169 91.629 132.169C90.6094 132.169 89.7798 132.998 89.7798 134.018C89.7798 135.037 90.6094 135.866 91.629 135.866Z" fill="#FDE68A"/>
<path d="M111.52 113.613C112.539 113.613 113.369 112.784 113.369 111.765C113.369 110.745 112.539 109.916 111.52 109.916C110.5 109.916 109.67 110.745 109.67 111.765C109.67 112.784 110.5 113.613 111.52 113.613Z" fill="#FDE68A"/>
<path d="M133.78 93.7284C134.799 93.7284 135.629 92.899 135.629 91.8798C135.629 90.8606 134.799 90.0312 133.78 90.0312C132.76 90.0312 131.931 90.8606 131.931 91.8798C131.931 92.899 132.76 93.7284 133.78 93.7284Z" fill="#FDE68A"/>
<path d="M158.129 76.4511C159.148 76.4511 159.978 75.6217 159.978 74.6025C159.978 73.5833 159.148 72.7539 158.129 72.7539C157.109 72.7539 156.28 73.5833 156.28 74.6025C156.28 75.6217 157.109 76.4511 158.129 76.4511Z" fill="#FDE68A"/>
<path d="M184.257 62.0224C185.276 62.0224 186.106 61.193 186.106 60.1738C186.106 59.1546 185.276 58.3252 184.257 58.3252C183.237 58.3252 182.408 59.1546 182.408 60.1738C182.408 61.193 183.237 62.0224 184.257 62.0224Z" fill="#FDE68A"/>
<path d="M211.845 50.6015C212.864 50.6015 213.694 49.7721 213.694 48.7529C213.694 47.7337 212.864 46.9043 211.845 46.9043C210.825 46.9043 209.996 47.7337 209.996 48.7529C209.996 49.7721 210.825 50.6015 211.845 50.6015Z" fill="#FDE68A"/>
<path d="M240.532 42.3378C241.551 42.3378 242.381 41.5084 242.381 40.4892C242.381 39.47 241.551 38.6406 240.532 38.6406C239.512 38.6406 238.683 39.47 238.683 40.4892C238.683 41.5084 239.512 42.3378 240.532 42.3378Z" fill="#FDE68A"/>
<path d="M269.959 37.3417C270.978 37.3417 271.808 36.5123 271.808 35.4931C271.808 34.4739 270.978 33.6445 269.959 33.6445C268.939 33.6445 268.109 34.4739 268.109 35.4931C268.109 36.5123 268.939 37.3417 269.959 37.3417Z" fill="#FDE68A"/>
<path d="M299.765 35.663C300.785 35.663 301.614 34.8336 301.614 33.8144C301.614 32.7952 300.785 31.9658 299.765 31.9658C298.746 31.9658 297.916 32.7952 297.916 33.8144C297.916 34.8336 298.746 35.663 299.765 35.663Z" fill="#FDE68A"/>
<path d="M329.572 37.3417C330.591 37.3417 331.421 36.5123 331.421 35.4931C331.421 34.4739 330.591 33.6445 329.572 33.6445C328.552 33.6445 327.723 34.4739 327.723 35.4931C327.723 36.5123 328.552 37.3417 329.572 37.3417Z" fill="#FDE68A"/>
<path d="M359.008 42.3378C360.028 42.3378 360.857 41.5084 360.857 40.4892C360.857 39.47 360.028 38.6406 359.008 38.6406C357.989 38.6406 357.159 39.47 357.159 40.4892C357.159 41.5084 357.989 42.3378 359.008 42.3378Z" fill="#FDE68A"/>
<path d="M387.695 50.6915C388.766 50.6915 389.635 49.8236 389.635 48.753C389.635 47.6824 388.766 46.8145 387.695 46.8145C386.625 46.8145 385.756 47.6824 385.756 48.753C385.756 49.8236 386.625 50.6915 387.695 50.6915Z" fill="#FDE68A"/>
<path d="M415.273 62.1124C416.343 62.1124 417.212 61.243 417.212 60.1739C417.212 59.1047 416.343 58.2354 415.273 58.2354C414.204 58.2354 413.334 59.1047 413.334 60.1739C413.334 61.243 414.204 62.1124 415.273 62.1124Z" fill="#FDE68A"/>
<path d="M441.402 76.5509C442.471 76.5509 443.341 75.6815 443.341 74.6123C443.341 73.5432 442.471 72.6738 441.402 72.6738C440.332 72.6738 439.462 73.5432 439.462 74.6123C439.462 75.6815 440.332 76.5509 441.402 76.5509Z" fill="#FDE68A"/>
<path d="M465.75 93.8184C466.82 93.8184 467.689 92.9491 467.689 91.8799C467.689 90.8107 466.82 89.9414 465.75 89.9414C464.681 89.9414 463.811 90.8107 463.811 91.8799C463.811 92.9491 464.681 93.8184 465.75 93.8184Z" fill="#FDE68A"/>
<path d="M488.01 113.703C489.08 113.703 489.95 112.834 489.95 111.765C489.95 110.696 489.08 109.826 488.01 109.826C486.941 109.826 486.071 110.696 486.071 111.765C486.071 112.834 486.941 113.703 488.01 113.703Z" fill="#FDE68A"/>
<path d="M507.902 135.956C508.971 135.956 509.841 135.087 509.841 134.018C509.841 132.948 508.971 132.079 507.902 132.079C506.832 132.079 505.962 132.948 505.962 134.018C505.962 135.087 506.832 135.956 507.902 135.956Z" fill="#FDE68A"/>
<path d="M525.184 160.297C526.253 160.297 527.123 159.428 527.123 158.358C527.123 157.289 526.253 156.42 525.184 156.42C524.114 156.42 523.245 157.289 523.245 158.358C523.245 159.428 524.114 160.297 525.184 160.297Z" fill="#FDE68A"/>
<path d="M539.617 186.417C540.687 186.417 541.556 185.548 541.556 184.479C541.556 183.409 540.687 182.54 539.617 182.54C538.548 182.54 537.678 183.409 537.678 184.479C537.678 185.548 538.548 186.417 539.617 186.417Z" fill="#FDE68A"/>
<path d="M551.042 213.996C552.112 213.996 552.981 213.127 552.981 212.058C552.981 210.988 552.112 210.119 551.042 210.119C549.973 210.119 549.103 210.988 549.103 212.058C549.103 213.127 549.973 213.996 551.042 213.996Z" fill="#FDE68A"/>
<path d="M559.308 242.674C560.378 242.674 561.247 241.805 561.247 240.735C561.247 239.666 560.378 238.797 559.308 238.797C558.239 238.797 557.369 239.666 557.369 240.735C557.369 241.805 558.239 242.674 559.308 242.674Z" fill="#FDE68A"/>
<path d="M564.306 272.181C565.425 272.181 566.335 271.272 566.335 270.152C566.335 269.033 565.425 268.124 564.306 268.124C563.186 268.124 562.277 269.033 562.277 270.152C562.277 271.272 563.186 272.181 564.306 272.181Z" fill="#FDE68A"/>
<path d="M599.26 300.69C599.67 300.69 600 300.36 600 299.95C600 299.541 599.67 299.211 599.26 299.211C598.85 299.211 598.521 299.541 598.521 299.95C598.521 300.36 598.85 300.69 599.26 300.69Z" fill="#FDE68A"/>
<path d="M597.771 330.496C598.181 330.496 598.511 330.167 598.511 329.757C598.511 329.347 598.181 329.018 597.771 329.018C597.361 329.018 597.031 329.347 597.031 329.757C597.031 330.167 597.361 330.496 597.771 330.496Z" fill="#FDE68A"/>
<path d="M593.323 360.014C593.733 360.014 594.063 359.684 594.063 359.275C594.063 358.865 593.733 358.535 593.323 358.535C592.913 358.535 592.583 358.865 592.583 359.275C592.583 359.684 592.913 360.014 593.323 360.014Z" fill="#FDE68A"/>
<path d="M585.956 388.942C586.366 388.942 586.696 388.612 586.696 388.202C586.696 387.793 586.366 387.463 585.956 387.463C585.547 387.463 585.217 387.793 585.217 388.202C585.217 388.612 585.547 388.942 585.956 388.942Z" fill="#FDE68A"/>
<path d="M575.741 416.991C576.15 416.991 576.48 416.661 576.48 416.251C576.48 415.841 576.15 415.512 575.741 415.512C575.331 415.512 575.001 415.841 575.001 416.251C575.001 416.661 575.331 416.991 575.741 416.991Z" fill="#FDE68A"/>
<path d="M562.787 443.879C563.196 443.879 563.526 443.55 563.526 443.14C563.526 442.73 563.196 442.4 562.787 442.4C562.377 442.4 562.047 442.73 562.047 443.14C562.047 443.55 562.377 443.879 562.787 443.879Z" fill="#FDE68A"/>
<path d="M547.224 469.35C547.633 469.35 547.963 469.02 547.963 468.611C547.963 468.201 547.633 467.871 547.224 467.871C546.814 467.871 546.484 468.201 546.484 468.611C546.484 469.02 546.814 469.35 547.224 469.35Z" fill="#FDE68A"/>
<path d="M529.192 493.142C529.602 493.142 529.931 492.812 529.931 492.403C529.931 491.993 529.602 491.663 529.192 491.663C528.782 491.663 528.452 491.993 528.452 492.403C528.452 492.812 528.782 493.142 529.192 493.142Z" fill="#FDE68A"/>
<path d="M508.881 515.015C509.291 515.015 509.62 514.685 509.62 514.276C509.62 513.866 509.291 513.536 508.881 513.536C508.471 513.536 508.141 513.866 508.141 514.276C508.141 514.685 508.471 515.015 508.881 515.015Z" fill="#FDE68A"/>
<path d="M486.501 534.77C486.911 534.77 487.241 534.44 487.241 534.03C487.241 533.621 486.911 533.291 486.501 533.291C486.091 533.291 485.761 533.621 485.761 534.03C485.761 534.44 486.091 534.77 486.501 534.77Z" fill="#FDE68A"/>
<path d="M462.262 552.197C462.672 552.197 463.002 551.867 463.002 551.457C463.002 551.048 462.672 550.718 462.262 550.718C461.852 550.718 461.522 551.048 461.522 551.457C461.522 551.867 461.852 552.197 462.262 552.197Z" fill="#FDE68A"/>
<path d="M436.404 567.116C436.814 567.116 437.143 566.786 437.143 566.376C437.143 565.966 436.814 565.637 436.404 565.637C435.994 565.637 435.664 565.966 435.664 566.376C435.664 566.786 435.994 567.116 436.404 567.116Z" fill="#FDE68A"/>
<path d="M409.186 579.396C409.596 579.396 409.926 579.066 409.926 578.656C409.926 578.247 409.596 577.917 409.186 577.917C408.776 577.917 408.446 578.247 408.446 578.656C408.446 579.066 408.776 579.396 409.186 579.396Z" fill="#FDE68A"/>
<path d="M380.878 588.899C381.288 588.899 381.618 588.569 381.618 588.159C381.618 587.75 381.288 587.42 380.878 587.42C380.469 587.42 380.139 587.75 380.139 588.159C380.139 588.569 380.469 588.899 380.878 588.899Z" fill="#FDE68A"/>
<path d="M351.772 595.543C352.182 595.543 352.512 595.214 352.512 594.804C352.512 594.394 352.182 594.064 351.772 594.064C351.362 594.064 351.032 594.394 351.032 594.804C351.032 595.214 351.362 595.543 351.772 595.543Z" fill="#FDE68A"/>
<path d="M322.145 599.25C322.555 599.25 322.885 598.921 322.885 598.511C322.885 598.101 322.555 597.771 322.145 597.771C321.735 597.771 321.405 598.101 321.405 598.511C321.405 598.921 321.735 599.25 322.145 599.25Z" fill="#FDE68A"/>
<path d="M292.298 600C292.708 600 293.038 599.671 293.038 599.261C293.038 598.851 292.708 598.521 292.298 598.521C291.888 598.521 291.559 598.851 291.559 599.261C291.559 599.671 291.888 600 292.298 600Z" fill="#FDE68A"/>
<path d="M262.532 597.762C262.941 597.762 263.271 597.432 263.271 597.023C263.271 596.613 262.941 596.283 262.532 596.283C262.122 596.283 261.792 596.613 261.792 597.023C261.792 597.432 262.122 597.762 262.532 597.762Z" fill="#FDE68A"/>
<path d="M233.125 592.585C233.535 592.585 233.865 592.256 233.865 591.846C233.865 591.436 233.535 591.106 233.125 591.106C232.715 591.106 232.385 591.436 232.385 591.846C232.385 592.256 232.715 592.585 233.125 592.585Z" fill="#FDE68A"/>
<path d="M204.378 584.502C204.788 584.502 205.118 584.173 205.118 583.763C205.118 583.353 204.788 583.023 204.378 583.023C203.968 583.023 203.638 583.353 203.638 583.763C203.638 584.173 203.968 584.502 204.378 584.502Z" fill="#FDE68A"/>
<path d="M176.591 573.59C177.001 573.59 177.33 573.26 177.33 572.851C177.33 572.441 177.001 572.111 176.591 572.111C176.181 572.111 175.851 572.441 175.851 572.851C175.851 573.26 176.181 573.59 176.591 573.59Z" fill="#FDE68A"/>
<path d="M150.022 559.981C150.432 559.981 150.762 559.651 150.762 559.241C150.762 558.832 150.432 558.502 150.022 558.502C149.613 558.502 149.283 558.832 149.283 559.241C149.283 559.651 149.613 559.981 150.022 559.981Z" fill="#FDE68A"/>
<path d="M124.944 543.784C125.354 543.784 125.683 543.454 125.683 543.044C125.683 542.634 125.354 542.305 124.944 542.305C124.534 542.305 124.204 542.634 124.204 543.044C124.204 543.454 124.534 543.784 124.944 543.784Z" fill="#FDE68A"/>
<path d="M101.594 525.177C102.004 525.177 102.334 524.847 102.334 524.438C102.334 524.028 102.004 523.698 101.594 523.698C101.184 523.698 100.854 524.028 100.854 524.438C100.854 524.847 101.184 525.177 101.594 525.177Z" fill="#FDE68A"/>
<path d="M80.224 504.333C80.6339 504.333 80.9637 504.004 80.9637 503.594C80.9637 503.184 80.6339 502.854 80.224 502.854C79.8142 502.854 79.4844 503.184 79.4844 503.594C79.4844 504.004 79.8142 504.333 80.224 504.333Z" fill="#FDE68A"/>
<path d="M61.0328 481.382C61.3928 481.382 61.6828 481.092 61.6828 480.732C61.6828 480.372 61.3928 480.082 61.0328 480.082C60.6728 480.082 60.3828 480.372 60.3828 480.732C60.3828 481.092 60.6728 481.382 61.0328 481.382Z" fill="#FDE68A"/>
<path d="M44.2105 456.721C44.5705 456.721 44.8605 456.431 44.8605 456.071C44.8605 455.711 44.5705 455.421 44.2105 455.421C43.8505 455.421 43.5605 455.711 43.5605 456.071C43.5605 456.431 43.8505 456.721 44.2105 456.721Z" fill="#FDE68A"/>
<path d="M29.9366 430.501C30.2966 430.501 30.5866 430.211 30.5866 429.851C30.5866 429.491 30.2966 429.201 29.9366 429.201C29.5766 429.201 29.2866 429.491 29.2866 429.851C29.2866 430.211 29.5766 430.501 29.9366 430.501Z" fill="#FDE68A"/>
<path d="M18.3321 403.002C18.6921 403.002 18.9821 402.712 18.9821 402.352C18.9821 401.992 18.6921 401.702 18.3321 401.702C17.9721 401.702 17.6821 401.992 17.6821 402.352C17.6821 402.712 17.9721 403.002 18.3321 403.002Z" fill="#FDE68A"/>
<path d="M9.53623 374.474C9.89623 374.474 10.1862 374.184 10.1862 373.824C10.1862 373.464 9.89623 373.174 9.53623 373.174C9.17623 373.174 8.88623 373.464 8.88623 373.824C8.88623 374.184 9.17623 374.474 9.53623 374.474Z" fill="#FDE68A"/>
<path d="M3.61875 345.227C3.97875 345.227 4.26875 344.937 4.26875 344.577C4.26875 344.217 3.97875 343.927 3.61875 343.927C3.25875 343.927 2.96875 344.217 2.96875 344.577C2.96875 344.937 3.25875 345.227 3.61875 345.227Z" fill="#FDE68A"/>
<path d="M0.65 315.519C1.01 315.519 1.3 315.229 1.3 314.869C1.3 314.509 1.01 314.219 0.65 314.219C0.29 314.219 0 314.509 0 314.869C0 315.229 0.29 315.519 0.65 315.519Z" fill="#FDE68A"/>
<path d="M0.65 285.682C1.00899 285.682 1.3 285.391 1.3 285.032C1.3 284.673 1.00899 284.382 0.65 284.382C0.291015 284.382 0 284.673 0 285.032C0 285.391 0.291015 285.682 0.65 285.682Z" fill="#FDE68A"/>
<path d="M3.61875 255.975C3.97875 255.975 4.26875 255.685 4.26875 255.325C4.26875 254.965 3.97875 254.675 3.61875 254.675C3.25875 254.675 2.96875 254.965 2.96875 255.325C2.96875 255.685 3.25875 255.975 3.61875 255.975Z" fill="#FDE68A"/>
<path d="M9.53623 226.717C9.89623 226.717 10.1862 226.427 10.1862 226.067C10.1862 225.707 9.89623 225.417 9.53623 225.417C9.17623 225.417 8.88623 225.707 8.88623 226.067C8.88623 226.427 9.17623 226.717 9.53623 226.717Z" fill="#FDE68A"/>
<path d="M18.3321 198.199C18.6921 198.199 18.9821 197.909 18.9821 197.549C18.9821 197.189 18.6921 196.899 18.3321 196.899C17.9721 196.899 17.6821 197.189 17.6821 197.549C17.6821 197.909 17.9721 198.199 18.3321 198.199Z" fill="#FDE68A"/>
<path d="M29.9366 170.691C30.2966 170.691 30.5866 170.401 30.5866 170.041C30.5866 169.681 30.2966 169.391 29.9366 169.391C29.5766 169.391 29.2866 169.681 29.2866 170.041C29.2866 170.401 29.5766 170.691 29.9366 170.691Z" fill="#FDE68A"/>
<path d="M44.2105 144.481C44.5705 144.481 44.8605 144.191 44.8605 143.831C44.8605 143.471 44.5705 143.181 44.2105 143.181C43.8505 143.181 43.5605 143.471 43.5605 143.831C43.5605 144.191 43.8505 144.481 44.2105 144.481Z" fill="#FDE68A"/>
<path d="M61.0328 119.82C61.3928 119.82 61.6828 119.53 61.6828 119.17C61.6828 118.81 61.3928 118.52 61.0328 118.52C60.6728 118.52 60.3828 118.81 60.3828 119.17C60.3828 119.53 60.6728 119.82 61.0328 119.82Z" fill="#FDE68A"/>
<path d="M80.2242 96.9562C80.5832 96.9562 80.8742 96.6652 80.8742 96.3062C80.8742 95.9473 80.5832 95.6562 80.2242 95.6562C79.8652 95.6562 79.5742 95.9473 79.5742 96.3062C79.5742 96.6652 79.8652 96.9562 80.2242 96.9562Z" fill="#FDE68A"/>
<path d="M101.594 76.1125C101.954 76.1125 102.244 75.8225 102.244 75.4625C102.244 75.1025 101.954 74.8125 101.594 74.8125C101.234 74.8125 100.944 75.1025 100.944 75.4625C100.944 75.8225 101.234 76.1125 101.594 76.1125Z" fill="#FDE68A"/>
<path d="M124.944 57.507C125.304 57.507 125.594 57.217 125.594 56.857C125.594 56.497 125.304 56.207 124.944 56.207C124.584 56.207 124.294 56.497 124.294 56.857C124.294 57.217 124.584 57.507 124.944 57.507Z" fill="#FDE68A"/>
<path d="M150.023 41.3098C150.383 41.3098 150.673 41.0198 150.673 40.6598C150.673 40.2998 150.383 40.0098 150.023 40.0098C149.663 40.0098 149.373 40.2998 149.373 40.6598C149.373 41.0198 149.663 41.3098 150.023 41.3098Z" fill="#FDE68A"/>
<path d="M176.591 27.6896C176.951 27.6896 177.241 27.3996 177.241 27.0396C177.241 26.6796 176.951 26.3896 176.591 26.3896C176.231 26.3896 175.941 26.6796 175.941 27.0396C175.941 27.3996 176.231 27.6896 176.591 27.6896Z" fill="#FDE68A"/>
<path d="M204.379 16.7883C204.739 16.7883 205.029 16.4983 205.029 16.1383C205.029 15.7783 204.739 15.4883 204.379 15.4883C204.019 15.4883 203.729 15.7783 203.729 16.1383C203.729 16.4983 204.019 16.7883 204.379 16.7883Z" fill="#FDE68A"/>
<path d="M233.126 8.7043C233.486 8.7043 233.776 8.4143 233.776 8.0543C233.776 7.6943 233.486 7.4043 233.126 7.4043C232.766 7.4043 232.476 7.6943 232.476 8.0543C232.476 8.4143 232.766 8.7043 233.126 8.7043Z" fill="#FDE68A"/>
<path d="M262.532 3.51875C262.892 3.51875 263.182 3.22875 263.182 2.86875C263.182 2.50875 262.892 2.21875 262.532 2.21875C262.172 2.21875 261.882 2.50875 261.882 2.86875C261.882 3.22875 262.172 3.51875 262.532 3.51875Z" fill="#FDE68A"/>
<path d="M292.299 1.29023C292.659 1.29023 292.949 1.00023 292.949 0.640234C292.949 0.280234 292.659 -0.00976562 292.299 -0.00976562C291.939 -0.00976562 291.649 0.280234 291.649 0.640234C291.649 1.00023 291.939 1.29023 292.299 1.29023Z" fill="#FDE68A"/>
<path d="M322.145 2.03926C322.505 2.03926 322.795 1.74926 322.795 1.38926C322.795 1.02926 322.505 0.739258 322.145 0.739258C321.785 0.739258 321.495 1.02926 321.495 1.38926C321.495 1.74926 321.785 2.03926 322.145 2.03926Z" fill="#FDE68A"/>
<path d="M351.772 5.74629C352.132 5.74629 352.422 5.45629 352.422 5.09629C352.422 4.73629 352.132 4.44629 351.772 4.44629C351.412 4.44629 351.122 4.73629 351.122 5.09629C351.122 5.45629 351.412 5.74629 351.772 5.74629Z" fill="#FDE68A"/>
<path d="M380.879 12.3918C381.238 12.3918 381.529 12.1008 381.529 11.7418C381.529 11.3828 381.238 11.0918 380.879 11.0918C380.52 11.0918 380.229 11.3828 380.229 11.7418C380.229 12.1008 380.52 12.3918 380.879 12.3918Z" fill="#FDE68A"/>
<path d="M409.186 21.8937C409.546 21.8937 409.836 21.6037 409.836 21.2437C409.836 20.8837 409.546 20.5938 409.186 20.5938C408.826 20.5938 408.536 20.8837 408.536 21.2437C408.536 21.6037 408.826 21.8937 409.186 21.8937Z" fill="#FDE68A"/>
<path d="M436.404 34.175C436.764 34.175 437.054 33.885 437.054 33.525C437.054 33.165 436.764 32.875 436.404 32.875C436.044 32.875 435.754 33.165 435.754 33.525C435.754 33.885 436.044 34.175 436.404 34.175Z" fill="#FDE68A"/>
<path d="M462.262 49.093C462.622 49.093 462.912 48.803 462.912 48.443C462.912 48.083 462.622 47.793 462.262 47.793C461.902 47.793 461.612 48.083 461.612 48.443C461.612 48.803 461.902 49.093 462.262 49.093Z" fill="#FDE68A"/>
<path d="M486.502 66.5197C486.862 66.5197 487.152 66.2297 487.152 65.8697C487.152 65.5097 486.862 65.2197 486.502 65.2197C486.142 65.2197 485.852 65.5097 485.852 65.8697C485.852 66.2297 486.142 66.5197 486.502 66.5197Z" fill="#FDE68A"/>
<path d="M508.881 86.3636C509.291 86.3636 509.62 86.0339 509.62 85.6242C509.62 85.2145 509.291 84.8848 508.881 84.8848C508.471 84.8848 508.141 85.2145 508.141 85.6242C508.141 86.0339 508.471 86.3636 508.881 86.3636Z" fill="#FDE68A"/>
<path d="M529.192 108.237C529.602 108.237 529.931 107.907 529.931 107.497C529.931 107.088 529.602 106.758 529.192 106.758C528.782 106.758 528.452 107.088 528.452 107.497C528.452 107.907 528.782 108.237 529.192 108.237Z" fill="#FDE68A"/>
<path d="M547.224 132.029C547.633 132.029 547.963 131.699 547.963 131.289C547.963 130.88 547.633 130.55 547.224 130.55C546.814 130.55 546.484 130.88 546.484 131.289C546.484 131.699 546.814 132.029 547.224 132.029Z" fill="#FDE68A"/>
<path d="M562.787 157.499C563.196 157.499 563.526 157.17 563.526 156.76C563.526 156.35 563.196 156.021 562.787 156.021C562.377 156.021 562.047 156.35 562.047 156.76C562.047 157.17 562.377 157.499 562.787 157.499Z" fill="#FDE68A"/>
<path d="M575.741 184.389C576.15 184.389 576.48 184.059 576.48 183.65C576.48 183.24 576.15 182.91 575.741 182.91C575.331 182.91 575.001 183.24 575.001 183.65C575.001 184.059 575.331 184.389 575.741 184.389Z" fill="#FDE68A"/>
<path d="M585.956 212.437C586.366 212.437 586.696 212.107 586.696 211.697C586.696 211.288 586.366 210.958 585.956 210.958C585.547 210.958 585.217 211.288 585.217 211.697C585.217 212.107 585.547 212.437 585.956 212.437Z" fill="#FDE68A"/>
<path d="M593.323 241.365C593.733 241.365 594.063 241.035 594.063 240.625C594.063 240.215 593.733 239.886 593.323 239.886C592.913 239.886 592.583 240.215 592.583 240.625C592.583 241.035 592.913 241.365 593.323 241.365Z" fill="#FDE68A"/>
<path d="M597.771 270.882C598.181 270.882 598.511 270.552 598.511 270.143C598.511 269.733 598.181 269.403 597.771 269.403C597.361 269.403 597.031 269.733 597.031 270.143C597.031 270.552 597.361 270.882 597.771 270.882Z" fill="#FDE68A"/>
</g>
<defs>
<clipPath id="clip0_108_8372">
<rect width="600" height="600" fill="white"/>
</clipPath>
</defs>
</svg>
