<svg width="16" height="16" viewBox="0 0 16 16" fill="none" xmlns="http://www.w3.org/2000/svg">
<path d="M8.97343 0.872302C8.81535 0.543032 8.4813 0.333496 8.11444 0.333496C7.74757 0.333496 7.4165 0.543032 7.25544 0.872302L5.3376 4.83252L1.05454 5.46712C0.696621 5.521 0.398358 5.77244 0.288 6.11668C0.177643 6.46091 0.267122 6.84107 0.523628 7.09551L3.63153 10.1817L2.89781 14.543C2.83815 14.9022 2.98729 15.2674 3.28257 15.4799C3.57785 15.6924 3.96857 15.7194 4.2907 15.5488L8.11742 13.4983L11.9441 15.5488C12.2663 15.7194 12.657 15.6954 12.9523 15.4799C13.2476 15.2644 13.3967 14.9022 13.337 14.543L12.6003 10.1817L15.7082 7.09551C15.9647 6.84107 16.0572 6.46091 15.9439 6.11668C15.8305 5.77244 15.5352 5.521 15.1773 5.46712L10.8913 4.83252L8.97343 0.872302Z" fill="#F59E0B"/>
</svg>
