<svg width="40" height="40" viewBox="0 0 40 40" fill="none" xmlns="http://www.w3.org/2000/svg">
<path d="M20 0.5C30.7696 0.5 39.5 9.23045 39.5 20C39.5 30.7696 30.7696 39.5 20 39.5C9.23045 39.5 0.5 30.7696 0.5 20C0.5 9.23045 9.23045 0.5 20 0.5Z" fill="#FFF7ED"/>
<path d="M20 0.5C30.7696 0.5 39.5 9.23045 39.5 20C39.5 30.7696 30.7696 39.5 20 39.5C9.23045 39.5 0.5 30.7696 0.5 20C0.5 9.23045 9.23045 0.5 20 0.5Z" stroke="#FED7AA"/>
<path fill-rule="evenodd" clip-rule="evenodd" d="M13.6 13.1201C13.3349 13.1201 13.12 13.335 13.12 13.6001C13.12 13.8652 13.3349 14.0801 13.6 14.0801H26.3999C26.6651 14.0801 26.8799 13.8652 26.8799 13.6001C26.8799 13.335 26.6651 13.1201 26.3999 13.1201H13.6ZM16.1939 19.9272C16.0065 20.1147 16.0065 20.4186 16.1939 20.606C16.3814 20.7935 16.6853 20.7935 16.8728 20.606L19.52 17.9588V26.4001C19.52 26.6651 19.7349 26.8801 20 26.8801C20.2651 26.8801 20.48 26.6651 20.48 26.4001V17.9588L23.1273 20.606C23.3147 20.7935 23.6186 20.7935 23.8061 20.606C23.9935 20.4186 23.9935 20.1147 23.8061 19.9272L20.3394 16.4605C20.152 16.2731 19.8481 16.2731 19.6606 16.4605L16.1939 19.9272Z" fill="#EA580C"/>
</svg>
