<svg width="32" height="20" viewBox="0 0 32 20" fill="none" xmlns="http://www.w3.org/2000/svg">
<g clip-path="url(#clip0_108_7542)">
<path d="M5.95844 7.37305C8.36703 5.04146 10.7099 2.63279 13.1084 0.3012C14.11 0.279686 16.7222 0.273411 17.7667 0.273411L10.3264 7.89207L12.6683 11.0511C13.312 11.7583 14.2123 12.0775 15.1636 12.125C18.2543 12.2809 21.4791 12.0013 24.5843 12.125C25.4207 12.0721 25.7877 11.7673 25.9447 10.9578C26.1201 10.0569 26.0278 9.59168 24.9998 9.51549C23.0952 9.37475 20.9669 9.68133 19.0742 9.51101C14.2625 9.07804 15.6996 1.82511 19.444 0.591639C19.7379 0.494826 20.0977 0.49393 20.273 0.375603H30.4095C30.5702 0.374706 30.6651 0.254586 30.8085 0.206179C32.2757 -0.285955 32.4583 1.99274 30.9555 1.72651L29.0838 3.56865L28.9176 3.66008C26.2488 3.73897 23.5645 3.67084 20.8893 3.69414C20.4802 3.72642 20.1041 3.98279 19.9534 4.35839C19.863 4.58429 19.7096 5.31935 19.7215 5.54973C19.7644 6.42105 20.8592 6.14854 21.407 6.14226C22.8815 6.12523 24.6382 6.09117 26.0936 6.19336C31.9142 6.60571 30.383 15.0204 25.1568 15.3906C21.3604 15.2239 17.3778 15.6058 13.6033 15.3906C12.3214 15.318 11.1728 14.8017 10.3282 13.8568L6.13009 8.40214C5.95023 8.40572 5.08741 8.33849 5.01893 8.43889L4.07212 14.6421C4.77424 15.3539 5.18784 16.5273 6.29353 16.6931L28.4346 16.72C28.609 16.5219 29.2782 16.2978 29.3988 16.1329C29.4864 16.0136 29.4252 15.8621 29.459 15.7322C29.638 15.0374 30.4579 14.6556 31.0614 15.1065C31.9032 15.7348 31.3764 17.1386 30.2661 16.9594C30.1456 16.9396 29.9411 16.8159 29.8461 16.8312C29.5996 16.8697 28.8518 17.6263 28.4282 17.5806L16.315 17.5877C15.318 18.1068 14.625 19.187 13.4891 19.4613L4.60441 19.5231C4.39259 19.5518 4.31498 19.7544 4.11594 19.8602C3.18921 20.3541 2.26248 19.4164 2.68796 18.5093C2.90526 18.0458 3.57908 17.9069 4.03012 18.1005C4.32229 18.2251 4.40355 18.4976 4.60533 18.6616L13.3467 18.6581C13.8206 18.6052 14.509 17.8925 14.8815 17.5851H6.21957C5.9064 17.5851 5.29649 17.2498 5.04815 17.049C4.28759 16.4367 3.67038 15.4274 3.01848 14.6959L4.94406 2.03398C5.01071 1.81077 4.8208 1.65479 4.79067 1.47103C4.68933 0.857876 5.09106 0.287753 5.74845 0.324507C6.81943 0.38367 6.9153 1.88607 5.93105 2.19981L5.15132 7.37394H5.95753L5.95844 7.37305ZM30.0707 1.39752H20.4209C19.1646 1.39752 17.8352 2.88916 17.4964 3.99086C16.955 5.74784 16.7441 7.93331 19.0303 8.43261C21.0481 8.59845 23.3234 8.25692 25.3111 8.44606C26.4834 8.55811 27.2851 9.19995 27.2093 10.411C27.1125 11.9636 26.351 13.0761 24.6893 13.1971C21.5092 13.0339 18.1155 13.4077 14.96 13.1944C12.5505 13.0312 11.7936 11.605 10.4898 9.92157C9.73201 8.94268 9.6754 8.90144 8.95958 7.89118L15.5699 1.35897H13.5293L6.86509 7.84815L11.2632 13.2975C11.9142 13.9312 12.7405 14.2755 13.6544 14.3203C17.554 14.5112 21.6005 14.2253 25.5047 14.254C27.6366 13.8264 28.5378 12.1689 28.6647 10.1546C28.7715 8.45144 27.5471 7.3847 25.8845 7.26727C24.0739 7.13998 22.0589 7.42056 20.262 7.27086C19.1125 7.17494 18.5537 6.4596 18.6259 5.35431C18.7153 3.981 19.3627 2.74932 20.8856 2.61844H28.8984C28.9422 2.62023 28.9715 2.59245 29.0061 2.57273C29.0865 2.5279 29.8562 1.75967 29.9411 1.65121C30.0004 1.57501 30.0808 1.50061 30.0698 1.39483L30.0707 1.39752Z" fill="#0197DB"/>
<path d="M2.05804 2.04384C1.52757 1.39125 1.60974 0.283274 2.5173 0.0528947C4.11602 -0.353183 4.67114 1.68707 3.29703 2.35042L1.51844 14.245C1.6353 14.747 1.87269 15.3817 1.30935 15.7214C0.285841 16.339 -0.55141 14.7972 0.452926 14.2163C1.04001 10.2021 1.67822 6.16916 2.2233 2.16217C2.19226 2.10211 2.09365 2.08687 2.05804 2.04384Z" fill="#0197DB"/>
</g>
<defs>
<clipPath id="clip0_108_7542">
<rect width="32" height="20" fill="white"/>
</clipPath>
</defs>
</svg>
