<svg width="16" height="16" viewBox="0 0 16 16" fill="none" xmlns="http://www.w3.org/2000/svg">
<path d="M7.87526 0.333008C8.14981 0.333008 8.40049 0.48819 8.51986 0.735885L10.5671 4.95267L15.139 5.62711C15.4076 5.66591 15.6314 5.85392 15.7149 6.11355C15.7985 6.37318 15.7299 6.6537 15.5389 6.8447L12.2233 10.1334L13.0052 14.7769C13.05 15.0455 12.9396 15.3171 12.7187 15.4782C12.4979 15.6394 12.2025 15.6573 11.9637 15.5289L7.87526 13.3444L3.78979 15.526C3.54806 15.6543 3.2556 15.6364 3.03476 15.4752C2.81393 15.3141 2.70053 15.0425 2.74529 14.7739L3.52717 10.1304L0.21164 6.8447C0.017662 6.6537 -0.047992 6.3702 0.0355677 6.11355C0.119127 5.8569 0.342948 5.66889 0.611533 5.62711L5.18344 4.95267L7.23065 0.735885C7.35301 0.48819 7.6007 0.333008 7.87526 0.333008ZM7.87526 2.69059L6.30851 5.91957C6.20406 6.13145 6.00412 6.28067 5.76836 6.31648L2.23796 6.83574L4.80146 9.37536C4.96559 9.5395 5.04318 9.77227 5.00439 10.0021L4.39858 13.5742L7.53804 11.8971C7.74992 11.7837 8.00358 11.7837 8.21248 11.8971L11.3519 13.5742L10.7491 10.005C10.7103 9.77525 10.7849 9.54248 10.952 9.37835L13.5155 6.83873L9.98514 6.31648C9.75237 6.28067 9.54944 6.13444 9.44499 5.91957L7.87526 2.69059Z" fill="#F59E0B"/>
</svg>
