<svg width="24" height="21" viewBox="0 0 24 21" fill="none" xmlns="http://www.w3.org/2000/svg">
<path d="M13.4318 17.6782C14.75 16.9979 15.8636 16.2043 16.7727 15.2972C17.6818 14.3449 18.3864 13.3698 18.8864 12.3721C19.3864 11.329 19.6364 10.3766 19.6364 9.51493C19.4545 9.65098 19.2045 9.76436 18.8864 9.85506C18.5682 9.94576 18.25 9.99112 17.9318 9.99112C16.5682 9.99112 15.4773 9.5376 14.6591 8.63057C13.8409 7.72354 13.4318 6.61243 13.4318 5.29724C13.4318 4.1181 13.8409 3.05234 14.6591 2.09996C15.5227 1.14758 16.75 0.671387 18.3409 0.671387C19.9318 0.671387 21.2727 1.32898 22.3636 2.64418C23.4545 3.91402 24 5.524 24 7.47411C24 9.60563 23.5682 11.5331 22.7045 13.2564C21.8864 14.9798 20.7955 16.4764 19.4318 17.7462C18.1136 18.9707 16.6818 19.9458 15.1364 20.6714L13.4318 17.6782ZM0.0681791 17.6782C1.34091 16.9979 2.43181 16.2043 3.3409 15.2972C4.25 14.3449 4.95454 13.3698 5.45454 12.3721C5.95454 11.329 6.20455 10.3766 6.20455 9.51493C6.02273 9.65098 5.77272 9.76436 5.45454 9.85506C5.18181 9.94576 4.86364 9.99112 4.5 9.99112C3.13636 9.99112 2.04545 9.5376 1.22727 8.63057C0.409089 7.72354 0 6.61243 0 5.29724C0 4.1181 0.409089 3.05234 1.22727 2.09996C2.09091 1.14758 3.31818 0.671387 4.90909 0.671387C6.54546 0.671387 7.88637 1.32898 8.93182 2.64418C10.0227 3.91402 10.5682 5.524 10.5682 7.47411C10.5682 9.60563 10.1364 11.5331 9.27272 13.2564C8.45454 14.9798 7.36364 16.4764 6 17.7462C4.68182 18.9707 3.25 19.9458 1.70455 20.6714L0.0681791 17.6782Z" fill="#CBD5E1"/>
</svg>
