<svg width="42" height="32" viewBox="0 0 42 32" fill="none" xmlns="http://www.w3.org/2000/svg">
<g clip-path="url(#clip0_21_631)">
<g clip-path="url(#clip1_21_631)">
<path d="M5.27361 24.6279C5.17761 24.6521 5.16262 24.5892 5.10713 24.5478C4.77361 24.2998 4.40956 23.8034 4.27304 23.42C3.34074 20.8031 6.15265 18.2975 4.41511 15.3229C3.08324 13.0432 -0.37241 14.001 0.373993 16.6577C0.660343 17.6763 0.993313 17.8328 0.696415 19.0353C0.253014 20.8316 -0.238113 21.5576 0.129261 23.5636C0.578213 26.0133 2.99611 28.983 5.74809 29.04C5.91791 29.0437 6.11602 28.9405 6.28917 28.983C6.32579 28.9921 6.66431 29.4509 6.77142 29.5493C8.08608 30.7523 10.4973 31.0212 12.236 31.0836C12.7831 31.1035 13.6533 31.1358 14.1644 31.0115C14.837 30.848 15.2166 30.3398 15.4558 29.7439C18.1362 30.5001 20.7894 31.3606 23.5047 32L38.4194 30.7996C38.8534 30.6803 39.2613 30.5076 39.4688 30.0957L41.9966 18.4567C42.066 16.9992 40.9705 16.8917 39.7641 16.9379C38.6309 16.9815 37.4577 17.1375 36.3223 17.2058C33.0009 17.4058 29.6752 17.5623 26.3577 17.821C26.2362 17.8543 26.1346 17.921 26.0336 17.9909C25.0475 18.6745 24.7445 21.2715 24.4742 22.3966C24.4542 22.4789 24.5114 22.4907 24.3649 22.4767C24.1496 21.9599 23.8843 21.4533 23.8099 20.8897L23.8649 17.3138C24.109 17.3644 24.4348 17.1945 24.6612 17.0912C26.1063 16.4335 28.0331 14.8346 28.5675 13.3476C28.7745 12.7705 28.9321 12.3408 29.1635 11.774C29.5692 10.7785 29.613 9.70133 29.4138 8.65585C29.8 8.70103 30.2135 8.41976 30.0381 8.02394C29.835 7.56681 29.0569 7.75451 28.8283 7.52917C28.6968 7.4001 28.0592 6.3202 27.9615 6.11046C27.9077 5.99483 27.8777 5.87007 27.8289 5.75283C27.8033 4.25721 28.0486 2.45505 27.6224 1.0073C27.0697 -0.86907 25.2672 0.314084 24.2827 1.07399C23.4692 1.70214 22.7788 2.4529 22.1057 3.21657C21.664 3.16279 21.2289 3.05147 20.7844 3.00898C19.9098 2.92509 18.9464 2.97403 18.0729 3.06922C17.8465 3.09396 17.3537 3.24723 17.1805 3.22518C17.0213 3.20474 16.0856 2.01191 15.8753 1.79733C15.2493 1.15896 14.029 0.121552 13.1128 0.0113041C11.7715 -0.150573 11.5767 1.53596 11.4052 2.47011C11.3353 2.85249 11.2654 3.24938 11.2193 3.63444C11.1261 4.4164 11.1699 5.3441 11.0328 6.08895C10.9896 6.32343 10.5761 6.90263 10.4429 7.18444C9.37577 9.4448 9.53616 11.7858 10.7631 13.9478C8.90962 15.1358 7.44012 16.8503 6.50227 18.8009C5.62934 20.6159 5.27916 22.63 5.27306 24.6279H5.27361ZM22.6795 4.17278C22.9742 3.91087 23.3504 3.2881 23.6695 2.95413C24.1712 2.42978 25.6723 1.10733 26.361 0.98633C26.6818 0.929861 26.6895 1.34988 26.7339 1.59942C26.9404 2.75353 26.8771 4.16686 26.8632 5.35055C26.8605 5.57105 26.7733 5.71733 26.8188 5.98085C26.9115 6.51435 27.563 7.13873 27.8044 7.63296C26.9642 7.63404 26.1157 7.6335 25.2767 7.68997C24.2739 7.75719 23.0885 7.80022 22.5519 8.76718C21.9214 8.66069 21.2516 8.66177 20.6279 8.80913C20.0613 8.0433 19.2155 7.85023 18.2865 7.79538C17.0462 7.72224 15.3126 7.78301 14.0701 7.90294C13.7904 7.92983 13.4729 8.02287 13.3398 8.28262L11.156 8.0632L12.0306 6.24921C12.2326 4.75145 12.1455 2.66641 12.7116 1.26222C12.7992 1.04441 12.8891 1.05302 13.1122 1.08475C13.7426 1.17348 14.7393 2.0716 15.18 2.52389C15.6467 3.00253 16.1267 3.7904 16.5646 4.19375C16.8959 4.49868 16.9907 4.29271 17.3148 4.21849C18.6217 3.91786 20.1062 3.88129 21.4336 4.10017C21.826 4.16471 22.3465 4.46803 22.6789 4.17278H22.6795ZM27.8732 8.61552C28.4559 8.6978 28.4953 9.09147 28.5281 9.59431C28.5902 10.5381 28.3427 11.9773 27.32 12.3537C26.7212 12.5742 24.9293 12.7141 24.3627 12.5011C23.8582 12.3118 23.4548 10.9318 23.3804 10.4413C23.25 9.58086 23.3038 8.98498 24.2944 8.77578C24.952 8.63703 27.2212 8.52302 27.8727 8.61498L27.8732 8.61552ZM17.9935 8.77847C18.3692 8.80052 19.564 8.86398 19.6911 9.28454C19.7355 9.43189 19.7166 10.0025 19.705 10.1902C19.6617 10.8694 19.3027 12.2118 18.5773 12.4855C17.7982 12.7797 15.9191 12.7071 15.0717 12.5785C14.9885 12.5662 14.9447 12.5393 14.877 12.4984C14.0273 11.9816 14.0573 9.7863 14.1217 8.92099C14.1927 8.82257 15.0451 8.88119 15.2371 8.87259C16.1583 8.83171 17.0684 8.72415 17.993 8.77847H17.9935ZM10.8236 9.08609L12.7893 9.19634C12.8592 9.20656 12.9796 9.24151 13.0151 9.30013C13.0656 9.38349 13.0745 10.5333 13.105 10.7726C13.2332 11.7917 13.6539 13.3363 14.8709 13.5788C15.7299 13.7504 17.6151 13.6988 18.483 13.524C19.8915 13.24 20.5269 11.8251 20.6939 10.5575C20.7483 10.1434 20.5213 9.86805 21.0441 9.7137C21.4525 9.5927 21.9004 9.59646 22.3033 9.7379C22.356 10.6591 22.5813 12.052 23.1751 12.7915C24.1207 13.9688 26.2289 13.6735 27.5264 13.2798C27.5714 13.3341 27.2473 13.7542 27.1846 13.8354C26.4892 14.7437 25.3943 15.6472 24.3277 16.1221C23.9564 16.2877 23.2356 16.4346 22.9548 16.6201C22.8815 16.6685 22.841 16.7309 22.8216 16.8137C22.9314 18.5594 22.4875 20.6186 23.1723 22.2589C23.4254 22.865 23.8504 23.4039 24.0891 24.0089L23.5863 26.6172C23.4564 26.6511 23.4925 26.5844 23.4598 26.5484C22.8099 25.839 21.2439 24.3472 21.1029 23.4582C21.0285 22.9903 21.2305 21.4162 20.271 21.8179C19.8088 22.0115 20.0713 22.6354 20.0929 22.9849C20.1162 23.3619 20.0724 24.3977 19.7222 24.623C19.4392 24.8048 18.6395 24.1014 18.4525 23.8755C17.9314 23.2447 17.9847 22.4541 17.7194 21.7356C17.5868 21.3764 17.468 21.207 17.0218 21.3054C16.6961 21.3774 16.6855 21.6872 16.7194 21.9523C16.7721 22.3675 17.0329 23.3028 17.1761 23.7142C17.7444 25.3421 19.6489 25.3625 20.5879 26.5387C21.3182 27.4529 20.8071 28.3376 19.6184 28.2311C18.6112 28.1408 16.3564 27.0926 15.5684 26.4553C13.9902 25.1786 14.0007 23.1403 12.3153 21.9174C11.9801 21.6738 10.8542 20.958 10.5728 21.5641C10.3059 22.139 10.8697 22.232 11.1921 22.4143C12.1943 22.9801 12.7565 23.6561 13.0373 24.7672C13.2282 25.5217 13.0806 26.7102 12.4613 27.2663C12.0845 27.6046 11.2992 27.4255 11.221 27.9504C11.1094 28.6963 12.1683 28.4177 12.6244 28.4479C13.2537 28.4893 14.3043 28.7318 14.322 29.496C14.3331 29.9725 13.9935 30.0844 13.5706 30.1166C12.6389 30.1876 11.0256 30.0403 10.09 29.8827C8.08775 29.546 6.87852 28.8028 6.45398 26.7914C5.59937 22.7397 7.24645 17.785 10.6288 15.2197C10.8586 15.0454 11.1033 14.8803 11.3586 14.7416C11.6344 14.9422 12.1172 15.6499 12.5406 15.3509C12.7399 15.2105 12.746 14.9545 12.6649 14.7491C12.5623 14.4883 11.9313 13.8558 11.7204 13.5138C10.8902 12.1661 10.6078 10.6441 10.8225 9.08824L10.8236 9.08609ZM5.77307 27.9617C5.09437 28.0284 4.45118 27.7326 3.89069 27.3932C1.92174 26.1999 0.885654 23.8658 1.05658 21.6442C1.17312 20.1303 2.08878 19.0509 1.7608 17.4107C1.63983 16.8067 1.26024 16.4265 1.3335 15.7811C1.44282 14.8152 2.62985 14.8357 3.21865 15.4601C4.89902 17.2412 3.13318 20.0324 3.05161 22.0712C2.98834 23.648 3.81521 25.3087 5.31634 25.9848C5.41956 26.6538 5.5411 27.3217 5.77307 27.9622V27.9617ZM40.8063 17.9167C40.9839 17.9662 41.0538 18.1942 41.0061 18.355C40.3495 21.3048 39.7613 24.2692 39.1081 27.219C39.0371 27.5395 38.607 29.6181 38.5155 29.7101C38.4622 29.7638 38.2363 29.8252 38.1497 29.8397C37.6248 29.9268 36.9272 29.9553 36.3778 30.0048C32.1763 30.385 27.9582 30.6227 23.7572 31.0062L23.644 30.9475C24.5402 27.1507 25.1967 23.2963 26.1679 19.5194C26.4037 19.0203 26.5042 18.7702 27.1119 18.7132C30.1236 18.4298 33.1891 18.3572 36.2113 18.1738C37.3834 18.1028 38.5965 17.9517 39.7641 17.906C39.996 17.8968 40.6226 17.8656 40.8063 17.9167ZM21.8116 26.7253C21.6362 26.0536 21.089 25.5416 20.5352 25.1388L20.7283 24.9516L22.1984 26.5919C22.2478 26.7145 21.8837 26.7 21.811 26.7253H21.8116ZM15.0956 28.4462C15.0495 28.4774 14.5457 28.0676 14.4258 27.994C14.1594 27.8294 13.8747 27.7046 13.5995 27.5557L14.0423 26.3488C14.5301 26.9001 15.0851 27.368 15.706 27.774C15.4086 27.8864 15.1794 28.1467 15.0951 28.4457L15.0956 28.4462ZM15.9841 28.9297C16.0695 28.5457 16.6328 28.5866 16.9541 28.6081C18.4336 28.7071 19.7449 29.8467 21.1712 28.7673C21.7905 28.2989 21.8105 27.6869 22.7333 27.5922C22.9242 27.5723 23.1185 27.5911 23.3094 27.5852L22.6179 30.7996L15.9835 28.9297H15.9841Z" fill="black"/>
<path d="M19.2754 15.3073C19.7465 15.8112 21.0329 15.5778 21.5062 15.1223C21.943 15.6838 23.7011 15.6547 23.5856 14.7641C23.5007 14.108 22.7898 14.5426 22.4635 14.5076C22.1178 14.47 21.9019 14.1709 21.9158 13.8445C21.9363 13.3626 22.4707 13.5428 22.6017 13.268C22.6766 13.1115 22.6777 12.8775 22.564 12.7388C22.2083 12.3042 20.1128 12.3645 20.2782 13.1749C20.3697 13.6256 21.3215 13.5148 20.7809 14.3C20.3692 14.8986 19.6999 14.278 19.3142 14.5463C19.0839 14.7066 19.0972 15.118 19.2748 15.3084L19.2754 15.3073Z" fill="black"/>
<path d="M17.3837 9.85082C16.0019 9.70508 15.8104 11.7347 17.1789 11.8299C18.5419 11.9246 18.7272 9.9928 17.3837 9.85082Z" fill="black"/>
<path d="M25.437 9.75079C24.2427 9.72767 24.0047 11.3459 25.0602 11.6637C26.6379 12.1392 27.0091 9.78145 25.437 9.75079Z" fill="black"/>
</g>
</g>
<defs>
<clipPath id="clip0_21_631">
<rect width="42" height="32" fill="white"/>
</clipPath>
<clipPath id="clip1_21_631">
<rect width="42" height="32" fill="white" transform="matrix(-1 0 0 1 42 0)"/>
</clipPath>
</defs>
</svg>
